<svg id="Farbe" xmlns="http://www.w3.org/2000/svg" viewBox="0 0 375.77 343.18"><defs><style>.cls-1{fill:#fff;}.cls-2{fill:#c4611e;}.cls-3{fill:#212121;}.cls-4{fill:#231f20;}</style></defs><path class="cls-1" d="M188.23,72a5,5,0,0,1-5-5V13.8a5,5,0,0,1,10,0V67A5,5,0,0,1,188.23,72Z"/><path class="cls-1" d="M188.23,75a8,8,0,0,1-8-8V13.8a8,8,0,0,1,16,0V67A8,8,0,0,1,188.23,75Z"/><path d="M188.23,76.49a9.51,9.51,0,0,1-9.5-9.5V13.8a9.5,9.5,0,0,1,19,0V67A9.51,9.51,0,0,1,188.23,76.49Zm0-69.19a6.51,6.51,0,0,0-6.5,6.5V67a6.5,6.5,0,0,0,13,0V13.8A6.51,6.51,0,0,0,188.23,7.3Z"/><line class="cls-2" x1="262.61" y1="77.58" x2="295.81" y2="36.02"/><path class="cls-1" d="M262.61,82.58a5,5,0,0,1-3.9-8.12l33.2-41.56a5,5,0,1,1,7.81,6.24L266.52,80.7A5,5,0,0,1,262.61,82.58Z"/><path class="cls-1" d="M262.61,85.58a8,8,0,0,1-6.25-13L289.56,31a8,8,0,1,1,12.5,10L268.87,82.57A8,8,0,0,1,262.61,85.58Z"/><path d="M262.61,87.08a9.51,9.51,0,0,1-7.42-15.43l33.2-41.56a9.51,9.51,0,0,1,13.35-1.5A9.52,9.52,0,0,1,303.23,42L270,83.51A9.47,9.47,0,0,1,262.61,87.08Zm33.22-57.56a6.12,6.12,0,0,0-.74,0,6.44,6.44,0,0,0-4.36,2.4L257.54,73.53a6.5,6.5,0,0,0,1,9.13,6.5,6.5,0,0,0,9.13-1l33.2-41.57a6.49,6.49,0,0,0-5.06-10.55Z"/><line class="cls-1" x1="113.84" y1="77.58" x2="80.64" y2="36.02"/><path class="cls-1" d="M113.84,82.58a5,5,0,0,1-3.91-1.88L76.74,39.14a5,5,0,1,1,7.81-6.24l33.2,41.56a5,5,0,0,1-3.91,8.12Z"/><path class="cls-1" d="M113.85,85.58a8,8,0,0,1-6.26-3L74.39,41a8,8,0,0,1,12.5-10l33.2,41.57a8,8,0,0,1-6.24,13Z"/><path d="M113.85,87.08a9.45,9.45,0,0,1-7.43-3.57L73.22,42A9.5,9.5,0,1,1,88.07,30.09l33.19,41.56a9.5,9.5,0,0,1-7.41,15.43ZM80.64,29.52a6.41,6.41,0,0,0-4,1.42,6.51,6.51,0,0,0-1,9.13l33.2,41.57a6.5,6.5,0,0,0,10.16-8.12L85.72,32A6.49,6.49,0,0,0,80.64,29.52Z"/><rect class="cls-1" x="35.66" y="143.38" width="313.86" height="141.35" rx="70.67"/><path d="M278.84,286.23H106.33a72.18,72.18,0,0,1,0-144.35H278.84a72.18,72.18,0,1,1,0,144.35ZM106.33,144.88a69.18,69.18,0,0,0,0,138.35H278.84a69.18,69.18,0,1,0,0-138.35Z"/><path class="cls-1" d="M278.84,292.73a78.68,78.68,0,0,0,78.68-78.67h0a78.68,78.68,0,0,0-78.68-78.68"/><path d="M278.84,294.23v-3a77.18,77.18,0,0,0,0-154.35v-3a80.18,80.18,0,0,1,0,160.35Z"/><path d="M125.28,234.62a22.46,22.46,0,0,1-22.44-22.44,1.5,1.5,0,0,1,3,0,19.44,19.44,0,0,0,38.88,0,1.5,1.5,0,0,1,3,0A22.46,22.46,0,0,1,125.28,234.62Z"/><path d="M125.28,224.81a13.18,13.18,0,0,1-13.16-13.16,1.5,1.5,0,1,1,3,0,10.16,10.16,0,0,0,20.32,0,1.5,1.5,0,0,1,3,0A13.18,13.18,0,0,1,125.28,224.81Z"/><path class="cls-3" d="M113.69,179.41a10.85,10.85,0,0,1,0-21.7,1.5,1.5,0,0,1,0,3,7.85,7.85,0,0,0,0,15.7,1.5,1.5,0,1,1,0,3Z"/><path class="cls-3" d="M134.26,154.23a1.5,1.5,0,0,1,0-3,7.86,7.86,0,0,0,7.85-7.85,1.5,1.5,0,0,1,3,0A10.87,10.87,0,0,1,134.26,154.23Z"/><path d="M33.32,212.91c-4.81,0-20.35-1.22-24.74-16.62a1.5,1.5,0,1,1,2.88-.82c1.88,6.59,6.28,11,13.06,13.15a29.16,29.16,0,0,0,10,1.26,1.49,1.49,0,0,1,1.62,1.36,1.51,1.51,0,0,1-1.36,1.63S34.2,212.91,33.32,212.91Z"/><path d="M32.31,212.84H6.94a1.5,1.5,0,1,1,0-3H32.31a1.5,1.5,0,0,1,0,3Z"/><path class="cls-1" d="M343.22,269.42l-74-130.5a10.54,10.54,0,0,0-9.18-5.35H182.69a10.55,10.55,0,0,0-9.18,15.75l74,130.51a10.54,10.54,0,0,0,9.18,5.35H334A10.56,10.56,0,0,0,343.22,269.42Z"/><path d="M334,286.68H256.65a12.08,12.08,0,0,1-10.49-6.11L172.21,150.06a12,12,0,0,1,10.48-18h77.39a12.08,12.08,0,0,1,10.49,6.11l73.95,130.51a12,12,0,0,1-10.48,18ZM182.69,135.07a9,9,0,0,0-7.87,13.52l74,130.5a9.09,9.09,0,0,0,7.88,4.59H334a9,9,0,0,0,7.87-13.52l-74-130.5a9.09,9.09,0,0,0-7.88-4.59Z"/><path class="cls-1" d="M321.27,149.32l-74,130.51a10.54,10.54,0,0,1-9.18,5.35H160.74a10.56,10.56,0,0,1-9.18-15.76l74-130.5a10.54,10.54,0,0,1,9.18-5.35h77.39A10.55,10.55,0,0,1,321.27,149.32Z"/><path class="cls-4" d="M238.13,286.68H160.74a12,12,0,0,1-10.48-18l74-130.51a12.06,12.06,0,0,1,10.48-6.11h77.39a12,12,0,0,1,10.48,18L248.62,280.57A12.08,12.08,0,0,1,238.13,286.68ZM234.7,135.07a9.06,9.06,0,0,0-7.87,4.59l-74,130.5a9,9,0,0,0,7.87,13.52h77.39a9.09,9.09,0,0,0,7.88-4.59L320,148.59a9,9,0,0,0-7.87-13.52Z"/><path class="cls-1" d="M16.1,237.3H87a0,0,0,0,1,0,0v95.41a0,0,0,0,1,0,0H16.1a9.15,9.15,0,0,1-9.15-9.15V246.45A9.15,9.15,0,0,1,16.1,237.3Z"/><path d="M88.47,334.21H16.1A10.67,10.67,0,0,1,5.44,323.56V246.45A10.67,10.67,0,0,1,16.1,235.8H88.47ZM16.1,238.8a7.66,7.66,0,0,0-7.66,7.65v77.11a7.66,7.66,0,0,0,7.66,7.65H85.47V238.8Z"/><path class="cls-1" d="M81.89,335c102.53-.58,201.34-15.52,201.34-15.52l81.33-47A9.89,9.89,0,0,0,368.19,259h0a25.72,25.72,0,0,0-33.84-10.11l-68.54,34.54-89.21-11h67.49a18.83,18.83,0,0,0,18.82-18.83h0a18.82,18.82,0,0,0-18.82-18.82l-162.2.28"/><path d="M81.89,336.53a1.5,1.5,0,0,1,0-3c98.59-.56,195-14.59,200.85-15.46l81.08-46.82a8.4,8.4,0,0,0,3.08-11.46A24.23,24.23,0,0,0,335,250.27l-68.55,34.54a1.4,1.4,0,0,1-.85.15l-89.21-11a1.5,1.5,0,0,1,.18-3h67.49a17.33,17.33,0,0,0,0-34.65l-162.2.28h0a1.5,1.5,0,0,1-1.5-1.49,1.51,1.51,0,0,1,1.5-1.51l162.19-.28a20.33,20.33,0,1,1,0,40.65H201l64.53,8,68.14-34.34a27.23,27.23,0,0,1,35.8,10.7,11.4,11.4,0,0,1-4.17,15.56l-81.33,47a1.61,1.61,0,0,1-.52.18c-1,.15-100.09,15-201.56,15.54Z"/><rect class="cls-1" x="69.29" y="230.99" width="13.03" height="108.39"/><path d="M82.33,340.87h-13a1.5,1.5,0,0,1-1.5-1.5V231a1.5,1.5,0,0,1,1.5-1.5h13a1.5,1.5,0,0,1,1.5,1.5V339.37A1.5,1.5,0,0,1,82.33,340.87Zm-11.54-3h10V232.49h-10Z"/></svg>