<?xml version="1.0" encoding="utf-8"?>
<svg id="master-artboard" viewBox="0 0 750 750" xmlns="http://www.w3.org/2000/svg" width="750px" height="750px" version="1.1" style="shape-rendering:geometricPrecision; text-rendering:geometricPrecision; image-rendering:optimizeQuality; fill-rule:evenodd; clip-rule:evenodd"><rect id="ee-background" x="0" y="0" width="750" height="750" style="fill: white; fill-opacity: 0; pointer-events: none;"/>
 
 <metadata id="CorelCorpID_0Corel-Layer"/>
<g transform="matrix(-1.9600000381469727, 0, 0, 1.9600000381469727, 866.7173461914062, -147.63160705566406)"><g id="Farbe"><g id="Baby_nur_Outlines" data-name="Baby nur Outlines"><path class="cls-1" d="M254.36,95.57a9.52,9.52,0,0,0-9.5,9.5v53.19a9.5,9.5,0,0,0,19,0V105.07A9.51,9.51,0,0,0,254.36,95.57Zm6.5,62.69a6.5,6.5,0,0,1-13,0V105.07a6.5,6.5,0,0,1,13,0Z" style="fill: rgb(3, 94, 144);"/><path class="cls-1" d="M367.88,119.86a9.51,9.51,0,0,0-13.35,1.49l-33.2,41.57a9.5,9.5,0,1,0,14.84,11.86l33.2-41.57A9.51,9.51,0,0,0,367.88,119.86Zm-39.13,55.49a6.45,6.45,0,0,1-4.06-1.42,6.52,6.52,0,0,1-1-9.14l33.2-41.56A6.5,6.5,0,0,1,367,131.34l-33.2,41.56A6.45,6.45,0,0,1,328.75,175.35Z" style="fill: rgb(3, 94, 144);"/><path class="cls-1" d="M154.2,121.35a9.5,9.5,0,1,0-14.84,11.86l33.19,41.57a9.5,9.5,0,0,0,14.85-11.86ZM184,173.93a6.49,6.49,0,0,1-9.13-1l-33.2-41.56a6.5,6.5,0,0,1,10.16-8.11l33.2,41.56A6.52,6.52,0,0,1,184,173.93Z" style="fill: rgb(3, 94, 144);"/><path d="M 262.700012 278.230011 L 264.429993 281.279999" class="cls-2" style="fill: none;"/><path class="cls-2" d="M133.93,322.25a1.5,1.5,0,0,1,1.5-1.5h13a1.5,1.5,0,0,1,1.5,1.5v2.62l34.58-.06A22.49,22.49,0,0,1,169,303.45a1.5,1.5,0,0,1,3,0,19.44,19.44,0,0,0,38.88,0,1.5,1.5,0,1,1,3,0,22.47,22.47,0,0,1-15.49,21.33l38-.07L261,281.28l-22.64-39.95a12,12,0,0,1-1.53-5.18H211.13a10.87,10.87,0,0,1-10.74,9.35,1.5,1.5,0,0,1,0-3,7.87,7.87,0,0,0,7.71-6.35H172.47a69.13,69.13,0,0,0-65.65,90.91h27.11Zm57.49-9.18a10.17,10.17,0,0,0,10.16-10.15,1.5,1.5,0,0,1,3,0,13.16,13.16,0,0,1-26.32,0,1.5,1.5,0,0,1,3,0A10.17,10.17,0,0,0,191.42,313.07ZM179.83,249a1.5,1.5,0,0,1,0,3,7.85,7.85,0,0,0,0,15.7,1.5,1.5,0,0,1,0,3,10.85,10.85,0,0,1,0-21.7Z" style="fill: none;"/><path class="cls-2" d="M147,372.83a71.81,71.81,0,0,1-10-4.73v54.38h10Z" style="fill: none;"/><path class="cls-2" d="M146.53,326.37a1.47,1.47,0,0,1,.43-1.05v-1.57h-10v3.31h9.77A1.44,1.44,0,0,1,146.53,326.37Z" style="fill: none;"/><path class="cls-2" d="M136.93,330.06v34.58a68.25,68.25,0,0,0,10,5V330.06Z" style="fill: none;"/><path class="cls-2" d="M313.19,373.94c-.17.19-.34.38-.52.56h1.71c-.15-.15-.28-.31-.43-.47Z" style="fill: none;"/><path class="cls-2" d="M400.43,341.91l1.49,2.63q1.5-2.18,2.83-4.45a23.34,23.34,0,0,0-3.58,1.45Z" style="fill: none;"/><path d="M 362.630005 281.279999 L 364.350006 278.230011" class="cls-2" style="fill: none;"/><path class="cls-1" d="M103.3,305.32a69.25,69.25,0,0,1,69.17-69.17H208.1a8.29,8.29,0,0,0,.14-1.5,1.5,1.5,0,0,1,1.5-1.5H172.47a72.26,72.26,0,0,0-72,68l.21,0a1.5,1.5,0,0,1,.26,3l-.57,0c0,.39,0,.77,0,1.16a71.64,71.64,0,0,0,3.35,21.74h3.17A68.59,68.59,0,0,1,103.3,305.32Z" style="fill: rgb(3, 94, 144);"/><path class="cls-1" d="M211.24,234.65a10.59,10.59,0,0,1-.11,1.5h25.68a11.6,11.6,0,0,1,.19-3H209.74A1.5,1.5,0,0,1,211.24,234.65Z" style="fill: rgb(3, 94, 144);"/><path class="cls-1" d="M213.86,303.45a1.5,1.5,0,1,0-3,0,19.44,19.44,0,0,1-38.88,0,1.5,1.5,0,0,0-3,0,22.49,22.49,0,0,0,15.56,21.36l13.83,0A22.47,22.47,0,0,0,213.86,303.45Z" style="fill: rgb(3, 94, 144);"/><path class="cls-1" d="M179.76,301.42a1.5,1.5,0,0,0-1.5,1.5,13.16,13.16,0,0,0,26.32,0,1.5,1.5,0,0,0-3,0,10.16,10.16,0,0,1-20.32,0A1.5,1.5,0,0,0,179.76,301.42Z" style="fill: rgb(3, 94, 144);"/><path class="cls-1" d="M179.83,270.68a1.5,1.5,0,0,0,0-3,7.85,7.85,0,0,1,0-15.7,1.5,1.5,0,0,0,0-3,10.85,10.85,0,0,0,0,21.7Z" style="fill: rgb(3, 94, 144);"/><path class="cls-1" d="M200.39,242.5a1.5,1.5,0,0,0,0,3,10.87,10.87,0,0,0,10.74-9.35h-3A7.87,7.87,0,0,1,200.39,242.5Z" style="fill: rgb(3, 94, 144);"/><path class="cls-1" d="M208.24,234.65a8.29,8.29,0,0,1-.14,1.5h3a10.59,10.59,0,0,0,.11-1.5,1.5,1.5,0,1,0-3,0Z" style="fill: rgb(3, 94, 144);"/><path class="cls-1" d="M90.66,299.89c-6.79-2.13-11.18-6.56-13.06-13.15a1.5,1.5,0,0,0-2.89.82A21.06,21.06,0,0,0,85.8,301.1H97.19A28.47,28.47,0,0,1,90.66,299.89Z" style="fill: rgb(3, 94, 144);"/><path class="cls-1" d="M98.9,301.18a1.49,1.49,0,0,1-.45,2.92H97.36c.82.06,1.53.08,2.1.08l.86,0c0-1,.05-2,.1-3C100.16,301.17,99.63,301.19,98.9,301.18Z" style="fill: rgb(3, 94, 144);"/><path class="cls-1" d="M102.25,302.51a1.5,1.5,0,0,0-1.62-1.37l-.21,0c0,1-.08,2-.1,3l.57,0A1.5,1.5,0,0,0,102.25,302.51Z" style="fill: rgb(3, 94, 144);"/><path class="cls-1" d="M98.45,301.1H97.19c.64,0,1.22.07,1.71.08A1.7,1.7,0,0,0,98.45,301.1Z" style="fill: rgb(3, 94, 144);"/><path class="cls-1" d="M73.08,301.1a1.5,1.5,0,1,0,0,3H97.36a30.45,30.45,0,0,1-11.56-3Z" style="fill: rgb(3, 94, 144);"/><path class="cls-1" d="M100,302.6a1.49,1.49,0,0,0-1-1.42c-.49,0-1.07,0-1.71-.08H85.8a30.45,30.45,0,0,0,11.56,3h1.09A1.5,1.5,0,0,0,100,302.6Z" style="fill: rgb(3, 94, 144);"/><path class="cls-2" d="M383.54,244.36,386,240l.09-.16c.16-.29.3-.59.43-.89.06-.13.11-.25.16-.38s.08-.25.12-.37a10,10,0,0,0,.29-1.07h0" style="fill: none;"/><path class="cls-2" d="M364.35,278.23,382.06,247" style="fill: none;"/><path class="cls-1" d="M382.06,247l1.48-2.61" style="fill: rgb(3, 94, 144);"/><path d="M 262.70001220703125 284.32000732421875 L 239.80999755859375 324.7099914550781 L 285.54998779296875 324.6300048828125 L 262.70001220703125 284.32000732421875 Z" class="cls-2" style="fill: none;"/><path d="M 267.1400146484375 365.239990234375 L 311.6700134277344 370.7300109863281 L 308.55999755859375 365.239990234375 L 267.1400146484375 365.239990234375 Z" class="cls-2" style="fill: none;"/><path class="cls-2" d="M312,365.15l1.57,2.77,1.92-3.39A21.24,21.24,0,0,1,312,365.15Z" style="fill: none;"/><path class="cls-2" d="M264.43,281.28,289,324.62l21.23,0a20.34,20.34,0,0,1,19.52,14.72l32.89-58" style="fill: none;"/><path class="cls-2" d="M326.13,351.75l-1.79,3.16A16.62,16.62,0,0,0,326.13,351.75Z" style="fill: none;"/><path class="cls-2" d="M396.27,340.65l-31.92-56.33L330.51,344c0,.29,0,.58,0,.87a20.34,20.34,0,0,1-10.67,17.88l-4.6,8.12c.06.1.14.19.21.29l16.19,2Z" style="fill: none;"/><path class="cls-1" d="M310.22,365.23h-1.66l3.11,5.5.21,0c.09-.13.18-.25.26-.39l1.39-2.44L312,365.15C311.38,365.2,310.81,365.23,310.22,365.23Z" style="fill: rgb(3, 94, 144);"/><path d="M 288.989990234375 324.6199951171875 L 264.42999267578125 281.2799987792969 L 262.70001220703125 284.32000732421875 L 285.54998779296875 324.6300048828125 L 288.989990234375 324.6199951171875 Z" class="cls-1" style="fill: rgb(3, 94, 144);"/><path class="cls-1" d="M315.14,371.16l.35,0c-.07-.1-.15-.19-.21-.29Z" style="fill: rgb(3, 94, 144);"/><path d="M 396.2699890136719 340.6499938964844 L 398.95001220703125 339.29998779296875 L 366.07000732421875 281.2799987792969 L 364.3500061035156 284.32000732421875 L 396.2699890136719 340.6499938964844 Z" class="cls-1" style="fill: rgb(3, 94, 144);"/><path class="cls-1" d="M241,230.83a9,9,0,0,1,7.82-4.49h44.09a12.06,12.06,0,0,1,7.92-3h-52A12,12,0,0,0,237,233.15h3.06A8.94,8.94,0,0,1,241,230.83Z" style="fill: rgb(3, 94, 144);"/><path class="cls-1" d="M261,281.28l1.72-3L241,239.85a9.1,9.1,0,0,1-1.14-3.7h-3a12,12,0,0,0,1.53,5.18Z" style="fill: rgb(3, 94, 144);"/><path class="cls-1" d="M236.81,236.15h3a8.91,8.91,0,0,1,.25-3H237A11.6,11.6,0,0,0,236.81,236.15Z" style="fill: rgb(3, 94, 144);"/><path class="cls-1" d="M364.35,284.32l-1.72-3-32.89,58a20,20,0,0,1,.77,4.74Z" style="fill: rgb(3, 94, 144);"/><path class="cls-1" d="M313.53,367.92l1.38,2.44a6.61,6.61,0,0,0,.37.55l4.6-8.12a20.72,20.72,0,0,1-4.43,1.74Z" style="fill: rgb(3, 94, 144);"/><path d="M 262.70001220703125 284.32000732421875 L 260.9800109863281 281.2799987792969 L 236.36000061035156 324.7099914550781 L 239.80999755859375 324.7099914550781 L 262.70001220703125 284.32000732421875 Z" class="cls-1" style="fill: rgb(3, 94, 144);"/><path class="cls-2" d="M387.1,237.14h0a9.19,9.19,0,0,0,.16-2.28,2.46,2.46,0,0,1,0-.28c0-.2,0-.41-.08-.61a8.52,8.52,0,0,0-.17-.85c0-.11-.07-.23-.11-.34s-.14-.46-.23-.69l-.13-.31a9.4,9.4,0,0,0-.48-.95,9,9,0,0,0-7.82-4.49h-19.6" style="fill: none;"/><path class="cls-1" d="M388.53,241.65a77.05,77.05,0,0,1,27.15,94.55,27.93,27.93,0,0,1,3,.58,80.09,80.09,0,0,0-29-97.93,11.87,11.87,0,0,1-1,2.48Z" style="fill: rgb(3, 94, 144);"/><path class="cls-1" d="M345,226.34v-1.19a79.62,79.62,0,0,1,13.64,1.19h19.6a9,9,0,0,1,7.82,4.49,9.4,9.4,0,0,1,.48.95l.13.31c.09.23.16.46.23.69s.08.23.11.34a8.52,8.52,0,0,1,.17.85c0,.2.06.41.08.61a2.46,2.46,0,0,0,0,.28,9.16,9.16,0,0,1-.16,2.28h0c.89.56,1.78,1.12,2.65,1.71a12,12,0,0,0-11.53-15.51h-52a12,12,0,0,1,7.91,3Z" style="fill: rgb(3, 94, 144);"/><path class="cls-1" d="M387.26,234.86a9.19,9.19,0,0,1-.16,2.28A9.16,9.16,0,0,0,387.26,234.86Z" style="fill: rgb(3, 94, 144);"/><path class="cls-1" d="M386.05,246l2.48-4.37c-.83-.56-1.67-1.11-2.52-1.64l-2.47,4.35C384.39,244.9,385.23,245.45,386.05,246Z" style="fill: rgb(3, 94, 144);"/><path class="cls-1" d="M366.07,281.28l18.5-32.63c-.83-.58-1.66-1.14-2.51-1.68l-17.71,31.26Z" style="fill: rgb(3, 94, 144);"/><path class="cls-1" d="M384.57,248.65l1.48-2.63c-.82-.57-1.66-1.12-2.51-1.66L382.06,247C382.91,247.51,383.74,248.07,384.57,248.65Z" style="fill: rgb(3, 94, 144);"/><path class="cls-1" d="M387.1,237.14a10,10,0,0,1-.29,1.07c0,.12-.07.24-.12.37s-.1.25-.16.38c-.13.3-.27.6-.43.89L386,240c.85.53,1.69,1.08,2.52,1.64l.18-.32a11.87,11.87,0,0,0,1-2.48c-.87-.59-1.76-1.15-2.65-1.71Z" style="fill: rgb(3, 94, 144);"/><path class="cls-1" d="M345,225.15v1.19h13.64A79.62,79.62,0,0,0,345,225.15Z" style="fill: rgb(3, 94, 144);"/><path d="M 366.07000732421875 281.2799987792969 L 364.3500061035156 278.2300109863281 L 362.6300048828125 281.2799987792969 L 364.3500061035156 284.32000732421875 L 366.07000732421875 281.2799987792969 Z" class="cls-1" style="fill: rgb(3, 94, 144);"/><path class="cls-1" d="M300.84,226.34h33.29a12,12,0,0,0-7.91-3H300.84a12.06,12.06,0,0,0-7.92,3Z" style="fill: rgb(3, 94, 144);"/><path class="cls-1" d="M314.91,370.36l-1.38-2.44-1.39,2.44c-.08.14-.17.26-.26.39l3.26.41.14-.25A6.61,6.61,0,0,1,314.91,370.36Z" style="fill: rgb(3, 94, 144);"/><path d="M 264.42999267578125 281.2799987792969 L 262.70001220703125 278.2300109863281 L 260.9800109863281 281.2799987792969 L 262.70001220703125 284.32000732421875 L 264.42999267578125 281.2799987792969 Z" class="cls-1" style="fill: rgb(3, 94, 144);"/><path class="cls-1" d="M82.23,422.48a7.66,7.66,0,0,1-7.65-7.65V337.72a7.66,7.66,0,0,1,7.65-7.66h22.44c-.37-1-.7-2-1-3H82.23a10.67,10.67,0,0,0-10.65,10.66v77.11a10.67,10.67,0,0,0,10.65,10.65h51.7v-3Z" style="fill: rgb(3, 94, 144);"/><path class="cls-1" d="M133.93,327.06H106.82c.33,1,.69,2,1.07,3h26Z" style="fill: rgb(3, 94, 144);"/><path class="cls-1" d="M107.89,330.06c-.38-1-.74-2-1.07-3h-3.17c.32,1,.65,2,1,3Z" style="fill: rgb(3, 94, 144);"/><path class="cls-1" d="M435.62,349.55a27.18,27.18,0,0,0-16.91-12.77q-.6,1.41-1.26,2.79A24.14,24.14,0,0,1,433,351.05,8.4,8.4,0,0,1,430,362.52l-22.44,13a11.77,11.77,0,0,1-2.72,1.58l-55.92,32.28c-5.77.86-98,14.29-194.27,15.41v.74H150v2.3c100.79-.75,198.65-15.37,199.63-15.52a1.4,1.4,0,0,0,.53-.19l81.33-47A11.4,11.4,0,0,0,435.62,349.55Z" style="fill: rgb(3, 94, 144);"/><path class="cls-1" d="M314,374c-.14-.15-.29-.3-.42-.46-.11.13-.23.24-.34.37Z" style="fill: rgb(3, 94, 144);"/><path class="cls-1" d="M399,339.3l1.48,2.61.74-.37a23.34,23.34,0,0,1,3.58-1.45c.68-1.18,1.34-2.38,2-3.6a27.19,27.19,0,0,0-6.89,2.37Z" style="fill: rgb(3, 94, 144);"/><path class="cls-1" d="M410.28,336c-.5,1.08-1,2.13-1.59,3.18a24,24,0,0,1,5.68-.12c.46-.94.89-1.9,1.31-2.87A27.8,27.8,0,0,0,410.28,336Z" style="fill: rgb(3, 94, 144);"/><path class="cls-1" d="M154.6,327.06v.8l80.06-.14,1.7-3-38,.07a22.38,22.38,0,0,1-13.83,0l-34.58.06v2.19Z" style="fill: rgb(3, 94, 144);"/><path class="cls-1" d="M404.75,340.09a22.88,22.88,0,0,1,3.94-.9c.56-1.05,1.09-2.1,1.59-3.18a27.08,27.08,0,0,0-3.57.48C406.09,337.71,405.43,338.91,404.75,340.09Z" style="fill: rgb(3, 94, 144);"/><path class="cls-1" d="M198.37,324.78l-13.83,0a22.38,22.38,0,0,0,13.83,0Z" style="fill: rgb(3, 94, 144);"/><path class="cls-1" d="M311.78,370.91l-.11-.18-44.53-5.5h41.42l-1.7-3H242.74a1.5,1.5,0,0,0-.19,3l66.66,8.23A9.14,9.14,0,0,0,311.78,370.91Z" style="fill: rgb(3, 94, 144);"/><path d="M 285.54998779296875 324.6300048828125 L 239.80999755859375 324.7099914550781 L 238.11000061035156 327.7099914550781 L 287.25 327.6199951171875 L 285.54998779296875 324.6300048828125 Z" class="cls-1" style="fill: rgb(3, 94, 144);"/><path class="cls-1" d="M317.73,360.5a17.12,17.12,0,0,1-7.43,1.73l1.66,2.92a21.24,21.24,0,0,0,3.49-.62Z" style="fill: rgb(3, 94, 144);"/><path class="cls-1" d="M310.22,327.58a17.35,17.35,0,0,1,17.25,15.73l2.27-4a20.34,20.34,0,0,0-19.52-14.72l-21.23,0,1.7,3Z" style="fill: rgb(3, 94, 144);"/><path class="cls-1" d="M396.27,340.65,331.68,373.2l-16.19-2a9.16,9.16,0,0,0,4.55,3.3h15.72l62-31.24Z" style="fill: rgb(3, 94, 144);"/><path class="cls-1" d="M324.34,354.91l-4.46,7.88a20.34,20.34,0,0,0,10.67-17.88c0-.29,0-.58,0-.87l-4.38,7.71A16.62,16.62,0,0,1,324.34,354.91Z" style="fill: rgb(3, 94, 144);"/><path class="cls-1" d="M320,374.5a9.05,9.05,0,0,0,2.75.45h12.08l.89-.45Z" style="fill: rgb(3, 94, 144);"/><path class="cls-1" d="M310.22,365.23c.59,0,1.16,0,1.74-.08l-1.66-2.92h-3.44l1.7,3Z" style="fill: rgb(3, 94, 144);"/><path class="cls-1" d="M311.78,370.91c0-.05.07-.1.1-.16l-.21,0Z" style="fill: rgb(3, 94, 144);"/><path d="M 288.989990234375 324.6199951171875 L 285.54998779296875 324.6300048828125 L 287.25 327.6199951171875 L 290.69000244140625 327.6199951171875 L 288.989990234375 324.6199951171875 Z" class="cls-1" style="fill: rgb(3, 94, 144);"/><path d="M 397.75 343.260009765625 L 400.42999267578125 341.9100036621094 L 398.95001220703125 339.29998779296875 L 396.2699890136719 340.6499938964844 L 397.75 343.260009765625 Z" class="cls-1" style="fill: rgb(3, 94, 144);"/><path class="cls-1" d="M407.51,375.47l-2.72,1.58A11.77,11.77,0,0,0,407.51,375.47Z" style="fill: rgb(3, 94, 144);"/><path class="cls-1" d="M315.49,371.2l-.35,0-.39.68a11.71,11.71,0,0,1-1.22,1.73c.13.16.28.31.42.46l3.77.47H320A9.16,9.16,0,0,1,315.49,371.2Z" style="fill: rgb(3, 94, 144);"/><path class="cls-1" d="M317.72,374.5l14,1.73a1.49,1.49,0,0,0,.86-.15l2.25-1.13H322.79" style="fill: rgb(3, 94, 144);"/><path class="cls-1" d="M327.55,344.91a17.16,17.16,0,0,1-1.42,6.84l4.38-7.71a20,20,0,0,0-.77-4.74l-2.27,4C327.52,343.84,327.55,344.37,327.55,344.91Z" style="fill: rgb(3, 94, 144);"/><path class="cls-1" d="M317.73,360.5l-2.28,4a20.72,20.72,0,0,0,4.43-1.74l4.46-7.88A17.39,17.39,0,0,1,317.73,360.5Z" style="fill: rgb(3, 94, 144);"/><path d="M 238.11000061035156 327.7099914550781 L 239.80999755859375 324.7099914550781 L 236.36000061035156 324.7099914550781 L 234.66000366210938 327.7200012207031 L 238.11000061035156 327.7099914550781 Z" class="cls-1" style="fill: rgb(3, 94, 144);"/><path class="cls-1" d="M311.78,370.91a9.14,9.14,0,0,1-2.57,2.54l4,.49c.11-.13.23-.24.34-.37a11.77,11.77,0,0,1-1.23-1.73Z" style="fill: rgb(3, 94, 144);"/><path class="cls-1" d="M414.37,339.07a24.4,24.4,0,0,1,3.08.5q.66-1.38,1.26-2.79a27.93,27.93,0,0,0-3-.58C415.26,337.17,414.83,338.13,414.37,339.07Z" style="fill: rgb(3, 94, 144);"/><path class="cls-1" d="M311.78,370.91l.52.93a11.77,11.77,0,0,0,1.23,1.73,11.71,11.71,0,0,0,1.22-1.73l.39-.68-3.26-.41C311.85,370.81,311.81,370.86,311.78,370.91Z" style="fill: rgb(3, 94, 144);"/><path class="cls-1" d="M150,425.48h4.64v-.74l-4.64,0Z" style="fill: rgb(3, 94, 144);"/><path d="M 154.60000610351562 327.8599853515625 L 154.60000610351562 327.05999755859375 L 149.9600067138672 327.05999755859375 L 149.9600067138672 327.8699951171875 L 154.60000610351562 327.8599853515625 Z" class="cls-1" style="fill: rgb(3, 94, 144);"/><path class="cls-1" d="M136.93,323.75h10v1.57a1.47,1.47,0,0,1,1.06-.45H150v-2.62a1.5,1.5,0,0,0-1.5-1.5h-13a1.5,1.5,0,0,0-1.5,1.5v4.81h3Z" style="fill: rgb(3, 94, 144);"/><path class="cls-1" d="M147,372.83v49.65h3v-48.6Q148.45,373.39,147,372.83Z" style="fill: rgb(3, 94, 144);"/><path class="cls-1" d="M133.93,366.3v56.18h3V368.1Q135.4,367.23,133.93,366.3Z" style="fill: rgb(3, 94, 144);"/><path class="cls-1" d="M147,330.06V369.6c1,.4,2,.77,3,1.12V330.06Z" style="fill: rgb(3, 94, 144);"/><path class="cls-1" d="M136.93,330.06h-3v32.68c1,.66,2,1.29,3,1.9Z" style="fill: rgb(3, 94, 144);"/><path class="cls-1" d="M148,427.8a1.48,1.48,0,0,1-1.07-.45v1.79h-10v-3.66h-3v5.16a1.5,1.5,0,0,0,1.5,1.5h13a1.5,1.5,0,0,0,1.5-1.5v-2.86l-1.93,0Z" style="fill: rgb(3, 94, 144);"/><path class="cls-1" d="M150,370.72c-1-.35-2-.72-3-1.12v3.23q1.48.56,3,1.05Z" style="fill: rgb(3, 94, 144);"/><path class="cls-1" d="M133.93,362.74v3.56q1.47.93,3,1.8v-3.46C135.91,364,134.91,363.4,133.93,362.74Z" style="fill: rgb(3, 94, 144);"/><path d="M 133.929993 422.480011 H 136.929993 V 425.480011 H 133.929993 V 422.480011 Z" class="cls-1" style="fill: rgb(3, 94, 144);"/><path d="M 133.929993 327.059998 H 136.929993 V 330.059998 H 133.929993 V 327.059998 Z" class="cls-1" style="fill: rgb(3, 94, 144);"/><path class="cls-1" d="M148,327.87a1.51,1.51,0,0,1-1.07-.44v2.63h3v-2.19Z" style="fill: rgb(3, 94, 144);"/><path class="cls-1" d="M147,425.24a1.49,1.49,0,0,1,1.06-.44l1.94,0v-2.3h-3Z" style="fill: rgb(3, 94, 144);"/><path class="cls-1" d="M147,425.48v1.87a1.48,1.48,0,0,0,1.07.45h0l1.93,0v-2.3Z" style="fill: rgb(3, 94, 144);"/><path class="cls-1" d="M147,325.32v1.74h3v-2.19H148A1.47,1.47,0,0,0,147,325.32Z" style="fill: rgb(3, 94, 144);"/><path class="cls-1" d="M148,327.87H150v-.81h-3v.37A1.51,1.51,0,0,0,148,327.87Z" style="fill: rgb(3, 94, 144);"/><path class="cls-1" d="M148,424.8a1.49,1.49,0,0,0-1.06.44v.24h3v-.7Z" style="fill: rgb(3, 94, 144);"/></g></g></g></svg>