<svg xmlns="http://www.w3.org/2000/svg" viewBox="0 0 500 500"><defs><style>.cls-1{fill:#035e90;}</style></defs><g id="Farbe"><path class="cls-1" d="M417.16,391l-32.34-82a81.7,81.7,0,0,0-76.43-52H287.77a64.57,64.57,0,0,0,13.05-25,16.2,16.2,0,0,0,12.51-15.72v-1.6a16.43,16.43,0,0,0,.06-27.71l.1-46.21a75.22,75.22,0,1,0-150.44-1.54l-.1,47.76a16.43,16.43,0,0,0,0,27.62v1.62A16.2,16.2,0,0,0,175.55,232a64.55,64.55,0,0,0,9.74,20.64,15.31,15.31,0,0,0-1.87.65A49,49,0,0,0,117.82,235l-.19-.32a1.27,1.27,0,0,0-.15-.41l-.57-1a25.64,25.64,0,0,1-2-5.59c-1.39-6.18,0-11.54,4.29-15.94a1.5,1.5,0,0,0-2.17-2.08,19,19,0,0,0-5.58,14.23L106,214.51a1.5,1.5,0,1,0-2.59,1.5l11,18.88c.3.62.59,1.14.83,1.56a48.91,48.91,0,0,0-18.58,61.84A84.32,84.32,0,0,0,91.54,309L59.21,391a36.38,36.38,0,0,0,33.84,49.72H383.31A36.38,36.38,0,0,0,417.16,391ZM301.86,227.42A64.71,64.71,0,0,0,303,217.21h1.49a16.42,16.42,0,0,0,4.83-.73A12.22,12.22,0,0,1,301.86,227.42ZM167.05,139.17a71.22,71.22,0,0,1,71.2-70.48H239a71.22,71.22,0,0,1,70.49,72L309.4,185a16.31,16.31,0,0,0-4.91-.75H303V172.35l-64.85-52.93-64.84,52.93v11.91h-1.46A16.6,16.6,0,0,0,167,185Zm3.41,85.62a12.06,12.06,0,0,1-3.55-8.35,16.62,16.62,0,0,0,5,.77h1.49a63.42,63.42,0,0,0,1.15,10.28A12,12,0,0,1,170.46,224.79Zm9.36,7.59c-.39-1.33-.74-2.66-1-4a61.33,61.33,0,0,1-1.44-13.15v-2h-5.46a12.38,12.38,0,0,1-5-1.05,12.47,12.47,0,0,1,5-23.9h5.46v-14l60.84-49.67L299,174.25v14h5.46a12.34,12.34,0,0,1,4.9,1,12.48,12.48,0,0,1-.05,22.95,12.26,12.26,0,0,1-4.85,1H299v2a60.54,60.54,0,0,1-1.45,13.14c-.3,1.36-.64,2.7-1,4a60.91,60.91,0,0,1-14.14,24.55c-1.32,1.4-2.71,2.73-4.15,4a60.64,60.64,0,0,1-72.82,5.51,15.87,15.87,0,0,0-11.75-13.9,16.19,16.19,0,0,0-3.89-.53A60.72,60.72,0,0,1,179.82,232.38ZM102.48,304.8l1.73-1-1.9-3.27c-.4-.68-.77-1.36-1.12-2a44,44,0,0,1-2-4.39A44.93,44.93,0,0,1,180,255.36l.92,1.57,1,1.7,1.72-1a14.51,14.51,0,0,1,1.43-.7,11.84,11.84,0,0,1,2.89-.8,12,12,0,0,1,4.72.28c.39.11.78.23,1.15.37a11.8,11.8,0,0,1,6.09,5.16c.17.29.31.58.46.88a11.8,11.8,0,0,1,1.14,5.81,12.54,12.54,0,0,1-.38,2.34,11.83,11.83,0,0,1-5.53,7.24l-1.73,1,1.88,3.24a9.16,9.16,0,0,0-3.31,3.32l-23.26,39.81-46.11.51a9.14,9.14,0,0,0-5,1.54l-1.9-3.26-1.73,1a11.9,11.9,0,1,1-12-20.58Zm151.63,70.11h-39l17.23-29.5,2.32-4,.32-.56c.14-.23.25-.48.37-.72l20.19,34.75Zm-22-37.78a5,5,0,0,1-.62,1.73l-1.5,2.57-19.56,33.48H145.54l-.27-.47,26.22-44.87,2.35-4,22-37.74a5.19,5.19,0,0,1,4.51-2.59h0a5.26,5.26,0,0,1,4.51,2.6L226.55,325l5,8.58h0A5.24,5.24,0,0,1,232.15,337.13ZM143,370.47l-2.31,4h0c-.08.15-.16.31-.23.47h-.27l-21.48-37a5.16,5.16,0,0,1,0-5.21,5.07,5.07,0,0,1,1.45-1.63,5.15,5.15,0,0,1,3-1l43.72-.48Zm267.12,52a31.92,31.92,0,0,1-26.77,14.16H93.05a32.38,32.38,0,0,1-30.12-44.26L92.68,317a15.88,15.88,0,0,0,22,12.78l.55.94-.06.08a9.14,9.14,0,0,0,0,9.2l22.63,39H335.75l-22-56.91L310,323.44l19.88,51.47H260.17L235,331.6h0L208.38,285.8a9.14,9.14,0,0,0-8-4.59h0c-.24,0-.48,0-.72,0l-.4-.69A15.73,15.73,0,0,0,205,272c.09-.33.15-.66.22-1a64.65,64.65,0,0,0,78.89-10.07h24.29a77.72,77.72,0,0,1,72.71,49.49l32.34,82A31.94,31.94,0,0,1,410.08,422.51Z"/><path class="cls-1" d="M171.49,194a1.5,1.5,0,0,0,0-3,9.7,9.7,0,0,0,0,19.39,1.5,1.5,0,0,0,0-3,6.7,6.7,0,0,1,0-13.39Z"/><path class="cls-1" d="M304.87,207.43a1.5,1.5,0,0,0,0,3,9.7,9.7,0,0,0,0-19.39,1.5,1.5,0,0,0,0,3,6.7,6.7,0,0,1,0,13.39Z"/><path class="cls-1" d="M238.19,219.74H246a6.27,6.27,0,1,1,0,12.54h-7.76a1.5,1.5,0,0,0,0,3H246a9.27,9.27,0,1,0,0-18.54h-6.27V193a1.5,1.5,0,1,0-3,0v25.25a1.43,1.43,0,0,0,.12.58A1.5,1.5,0,0,0,238.19,219.74Z"/><path class="cls-1" d="M259.67,243.72a36.45,36.45,0,0,1-43,0,1.5,1.5,0,0,0-1.77,2.43,39.45,39.45,0,0,0,46.5,0,1.5,1.5,0,0,0-1.76-2.43Z"/><path class="cls-1" d="M200.66,200.22a1.5,1.5,0,0,0,1.5-1.5,8.84,8.84,0,0,1,17.67,0,1.5,1.5,0,0,0,3,0,11.84,11.84,0,0,0-23.67,0A1.5,1.5,0,0,0,200.66,200.22Z"/><path class="cls-1" d="M253.83,200.22a1.5,1.5,0,0,0,1.5-1.5,8.83,8.83,0,1,1,17.66,0,1.5,1.5,0,1,0,3,0,11.83,11.83,0,1,0-23.66,0A1.5,1.5,0,0,0,253.83,200.22Z"/><path class="cls-1" d="M193.2,276.29a1.49,1.49,0,0,1-.75-2.79,6.25,6.25,0,0,0-6.28-10.8,1.5,1.5,0,1,1-1.5-2.59,9.24,9.24,0,0,1,9.28,16A1.43,1.43,0,0,1,193.2,276.29Z"/><path class="cls-1" d="M108.78,324.16a9.25,9.25,0,0,1-4.66-17.24,1.5,1.5,0,1,1,1.51,2.6,6.24,6.24,0,1,0,6.27,10.79,1.5,1.5,0,1,1,1.51,2.59A9.21,9.21,0,0,1,108.78,324.16Z"/><path class="cls-1" d="M131.81,289.85a1.18,1.18,0,0,1-1.61-.4,5.77,5.77,0,1,0-9.9,5.94,1.17,1.17,0,1,1-2,1.21,8.11,8.11,0,1,1,13.91-8.36A1.18,1.18,0,0,1,131.81,289.85Z"/><path class="cls-1" d="M165,269.9a1.18,1.18,0,0,1-1.61-.4,5.77,5.77,0,1,0-9.89,5.94,1.17,1.17,0,1,1-2,1.21,8.11,8.11,0,1,1,13.91-8.36A1.18,1.18,0,0,1,165,269.9Z"/><path class="cls-1" d="M153.9,302.49a8.12,8.12,0,0,1-11.13-2.77,1.17,1.17,0,1,1,2-1.21,5.78,5.78,0,1,0,9.9-5.95,1.17,1.17,0,0,1,2-1.2A8.12,8.12,0,0,1,153.9,302.49Z"/></g></svg>