<svg id="Farbe" xmlns="http://www.w3.org/2000/svg" viewBox="0 0 243.42 438.95"><defs><style>.cls-1{fill:#fff;}.cls-2{fill:#005d90;}.cls-3{fill:#231f20;}</style></defs><path class="cls-1" d="M17.24,274.37A114.22,114.22,0,1,0,224.05,264l-18-19s15.33-54.53-37.92-60.53l-14.23-23.3L37.12,164.66A29.1,29.1,0,0,0,9.67,195.44l2.87,52.48L44.87,251"/><path class="cls-2" d="M123.06,433.63a116.28,116.28,0,0,1-107.67-160l3.71,1.51a112.21,112.21,0,1,0,203.31-9.91l-18.58-19.66.31-1.09c.07-.24,6.66-24.49-4.81-41.51-6.27-9.3-16.84-14.85-31.42-16.49l-1-.11-14.13-23.14L37.18,166.66a27.09,27.09,0,0,0-25.51,28.67l2.78,50.76L45.06,249l-.38,4-34-3.25-3-54.2A31.1,31.1,0,0,1,37,162.66l118-3.52,14.32,23.46c15.31,1.92,26.52,8,33.32,18.13,11.18,16.61,6.87,38.49,5.61,43.7l17.42,18.43.13.24A116.25,116.25,0,0,1,123.06,433.63Z"/><path class="cls-1" d="M65,177.63l3.2,83.44,137.69-16.79A20.81,20.81,0,0,1,229,262.36h0L56.68,301.72a32.4,32.4,0,0,1-39.47-28.67l-2.69-32.88"/><path class="cls-2" d="M49.46,304.53a34.4,34.4,0,0,1-34.24-31.3l-2.69-32.89,4-.33,2.69,32.87a30.38,30.38,0,0,0,37,26.88l170.48-38.93a18.85,18.85,0,0,0-20.63-14.57L66.23,263.32,63,177.7l4-.15,3.11,81.27,135.53-16.53A22.86,22.86,0,0,1,231,262.11l.23,1.79L57.12,303.67A34.87,34.87,0,0,1,49.46,304.53Z"/><path class="cls-1" d="M66.58,163.78l-29.46.88A29.1,29.1,0,0,0,9.67,195.44l2.87,52.48,57.69-6.07"/><path class="cls-2" d="M10.66,250.13l-3-54.58A31.1,31.1,0,0,1,37,162.66l29.51-.88.12,4-29.46.88a27.09,27.09,0,0,0-25.51,28.67l2.75,50.38L70,239.86l.42,4Z"/><circle class="cls-1" cx="59.33" cy="44.34" r="34.31"/><path class="cls-2" d="M59.33,80.65a36.31,36.31,0,1,1,36.3-36.31A36.35,36.35,0,0,1,59.33,80.65Zm0-68.61a32.31,32.31,0,1,0,32.3,32.3A32.35,32.35,0,0,0,59.33,12Z"/><path class="cls-1" d="M59.48,102.26l.14-32.11c.31-27.72,24.91-50,54.94-49.68h0c30,.28,54.13,23,53.82,50.72l-.14,31.07Z"/><path class="cls-2" d="M170.23,104.26H57.48l.14-34.11C57.94,41.53,83.17,18.46,114,18.46h.59A58.62,58.62,0,0,1,155.77,35.6a50,50,0,0,1,14.61,35.61Zm-108.74-4H166.25l.13-29.08A46,46,0,0,0,152.91,38.4a54.57,54.57,0,0,0-38.37-15.93H114c-28.63,0-52.07,21.3-52.37,47.72Z"/><path class="cls-1" d="M171.21,109.15h-3V98.81L113.89,57.86l-54.33,41v10.34h-3c-6.91,0-12.51,5.18-12.51,11.56h0c0,6.38,5.6,11.55,12.51,11.55h3c0,27.7,24.32,50.16,54.33,50.16h0c30,0,54.33-22.46,54.33-50.16h3c6.91,0,12.51-5.17,12.51-11.55h0C183.72,114.33,178.12,109.15,171.21,109.15Z"/><path class="cls-2" d="M113.89,184.42c-30.34,0-55.15-22.32-56.29-50.16h-1c-8,0-14.51-6.08-14.51-13.55s6.51-13.56,14.51-13.56h1V97.81l56.33-42.45,56.33,42.45v9.34h1c8,0,14.51,6.08,14.51,13.56s-6.51,13.55-14.51,13.55h-1C169,162.1,144.23,184.42,113.89,184.42ZM56.57,111.15c-5.8,0-10.51,4.29-10.51,9.56s4.71,9.55,10.51,9.55h5v2c0,26.56,23.47,48.16,52.33,48.16s52.33-21.6,52.33-48.16v-2h5c5.8,0,10.51-4.29,10.51-9.55s-4.71-9.56-10.51-9.56h-5V99.81L113.89,60.37,61.56,99.81v11.34Z"/><path class="cls-2" d="M120.61,145.64h-6.72a1.5,1.5,0,1,1,0-3h6.72a5.21,5.21,0,0,0,0-10.42h-6.72a1.5,1.5,0,0,1,0-3h6.72a8.21,8.21,0,0,1,0,16.42Z"/><path class="cls-2" d="M113.89,132.2a1.5,1.5,0,0,1-1.5-1.5V108.88a1.5,1.5,0,0,1,3,0V130.7A1.5,1.5,0,0,1,113.89,132.2Z"/><path class="cls-2" d="M113.89,161.6A34.37,34.37,0,0,1,93.67,155a1.5,1.5,0,0,1,1.77-2.43,31.3,31.3,0,0,0,36.9,0,1.5,1.5,0,1,1,1.77,2.43A34.39,34.39,0,0,1,113.89,161.6Z"/><path class="cls-2" d="M99.32,115.34a1.5,1.5,0,0,1-1.5-1.5,7.43,7.43,0,1,0-14.86,0,1.5,1.5,0,0,1-3,0,10.43,10.43,0,1,1,20.86,0A1.5,1.5,0,0,1,99.32,115.34Z"/><path class="cls-2" d="M145.28,115.34a1.5,1.5,0,0,1-1.5-1.5,7.44,7.44,0,0,0-14.87,0,1.5,1.5,0,0,1-3,0,10.44,10.44,0,0,1,20.87,0A1.5,1.5,0,0,1,145.28,115.34Z"/><path class="cls-1" d="M112.73,20h0"/><path class="cls-3" d="M112.75,18m0,4h-.55"/></svg>