<svg xmlns="http://www.w3.org/2000/svg" viewBox="0 0 500 500"><defs><style>.cls-1{fill:none;}.cls-2{fill:#005d90;}</style></defs><g id="Farbe"><path class="cls-1" d="M319.25,243.53a2,2,0,0,1,2-2h4.1a15.16,15.16,0,1,0,0-30.31h-4.1a2,2,0,0,1-1.95-1.58l-145.06,0a2,2,0,0,1-2,1.6h-4.1a15.16,15.16,0,0,0,0,30.31h4.1a2,2,0,0,1,2,2,72.3,72.3,0,0,0,22.27,52.21H297A72.3,72.3,0,0,0,319.25,243.53Zm6.56-25.36a1.5,1.5,0,0,1,0-3,11.21,11.21,0,0,1,0,22.42,1.5,1.5,0,0,1,0-3,8.21,8.21,0,0,0,0-16.42ZM167.72,234.59a1.5,1.5,0,0,1,0,3,11.21,11.21,0,0,1,0-22.42,1.5,1.5,0,0,1,0,3,8.21,8.21,0,0,0,0,16.42Zm77.05-17.4a2,2,0,0,1,4,0v27.94H256a11.21,11.21,0,0,1,0,22.41h-9.21a2,2,0,0,1,0-4H256a7.21,7.21,0,0,0,0-14.41h-9.21a2,2,0,0,1-2-2ZM204.3,224a2,2,0,0,1-4,0,14.25,14.25,0,0,1,28.5,0,2,2,0,0,1-4,0,10.25,10.25,0,0,0-20.5,0Zm70.15,56.4a47,47,0,0,1-55.37,0,2,2,0,0,1,2.35-3.24,43,43,0,0,0,50.67,0,2,2,0,0,1,2.35,3.24ZM289.8,226a2,2,0,0,1-2-2,10.25,10.25,0,0,0-20.49,0,2,2,0,0,1-4,0,14.25,14.25,0,0,1,28.49,0A2,2,0,0,1,289.8,226Z"/><path class="cls-1" d="M199.61,139.7a2,2,0,0,1,1.56.1l118.75,59.69.15-38c.41-40-32.23-72.91-72.77-73.33S173.45,120,173,160l-.14,36.3,25.57-55.52A2,2,0,0,1,199.61,139.7Z"/><polygon class="cls-1" points="319.25 203.63 201.23 144.31 174.28 202.84 174.28 205.62 319.25 205.64 319.25 203.63"/><path class="cls-1" d="M195,299.74H174.1a68,68,0,0,0-67.77,61.08L96.39,428a14.36,14.36,0,0,0,14.2,16.46H383.43a14.35,14.35,0,0,0,14.18-16.52l-10.23-67.19a68,68,0,0,0-67.75-61H298.56a76.28,76.28,0,0,1-103.59,0Z"/><path class="cls-1" d="M201.05,299.74a72.32,72.32,0,0,0,91.43,0"/><path class="cls-2" d="M401.57,427.3l-10.22-67.11a72,72,0,0,0-71.72-64.45h-17c-1.29,1.38-2.65,2.71-4.05,4h21.07a68,68,0,0,1,67.75,61l10.23,67.19a14.35,14.35,0,0,1-14.18,16.52H110.59A14.36,14.36,0,0,1,96.39,428l9.94-67.14a68,68,0,0,1,67.77-61.08H195c-1.4-1.29-2.76-2.62-4.05-4H174.1a71.94,71.94,0,0,0-71.74,64.58l-9.93,67.05a18.36,18.36,0,0,0,18.16,21.05H383.43a18.36,18.36,0,0,0,18.14-21.12Z"/><path class="cls-2" d="M170.28,202.4a2,2,0,0,1,.18-.84l2.43-5.28L173,160c.42-40,33.74-72.25,74.27-71.8s73.18,33.31,72.77,73.33l-.15,38,2.23,1.12a2,2,0,0,1,1.1,1.79v4.82h.64l.18-45.69c.44-42.21-34-76.91-76.73-77.35h-.82C204.15,84.18,169.47,118,169,160l-.18,47.27h1.43Z"/><path class="cls-2" d="M201.23,144.31l118,59.32v2h.65l0-6.15L201.17,139.8a2,2,0,0,0-1.56-.1,2,2,0,0,0-1.15,1.06l-25.57,55.52,0,9.34h1.42v-2.78Z"/><path class="cls-2" d="M174.28,243.53a2,2,0,0,0-2-2h-4.1a15.16,15.16,0,0,1,0-30.31h4.1a2,2,0,0,0,2-1.6h-3.39a2,2,0,0,1-2-2v-.39h-.67a19.16,19.16,0,0,0,0,38.31h2.12a76.28,76.28,0,0,0,20.62,50.21h5.63A72.3,72.3,0,0,1,174.28,243.53Z"/><path class="cls-2" d="M246.77,316a72.17,72.17,0,0,1-45.72-16.28H195a76.28,76.28,0,0,0,103.59,0h-6.08A72.15,72.15,0,0,1,246.77,316Z"/><path class="cls-2" d="M321.89,209.64H319.3a2,2,0,0,0,1.95,1.58h4.1a15.16,15.16,0,1,1,0,30.31h-4.1a2,2,0,0,0-2,2A72.3,72.3,0,0,1,297,295.74h5.63a76.23,76.23,0,0,0,20.62-50.21h2.12a19.16,19.16,0,1,0,0-38.31h-1.46v.43A2,2,0,0,1,321.89,209.64Z"/><path class="cls-2" d="M195,299.74h6.08c-1.55-1.27-3.05-2.61-4.5-4h-5.63C192.21,297.12,193.57,298.45,195,299.74Z"/><path class="cls-2" d="M292.48,299.74h6.08c1.4-1.29,2.76-2.62,4.05-4H297C295.53,297.13,294,298.47,292.48,299.74Z"/><path class="cls-2" d="M169.43,209a2,2,0,0,0,1.42.59h3.39a1.75,1.75,0,0,0,0-.4v-3.6h-1.42l0-9.34-2.43,5.28a2,2,0,0,0-.18.84v4.82h-1.43v.39A2,2,0,0,0,169.43,209Z"/><path class="cls-2" d="M323.25,202.4a2,2,0,0,0-1.1-1.79l-2.23-1.12,0,6.15h-.65v3.58a1.86,1.86,0,0,0,.05.42h2.59a2,2,0,0,0,2-2v-.43h-.64Z"/><path class="cls-2" d="M167.72,218.17a1.5,1.5,0,0,0,0-3,11.21,11.21,0,0,0,0,22.42,1.5,1.5,0,0,0,0-3,8.21,8.21,0,0,1,0-16.42Z"/><path class="cls-2" d="M325.81,234.59a1.5,1.5,0,0,0,0,3,11.21,11.21,0,0,0,0-22.42,1.5,1.5,0,0,0,0,3,8.21,8.21,0,0,1,0,16.42Z"/><path class="cls-2" d="M246.77,249.11a2,2,0,0,1-1.85-1.22,2,2,0,0,0,1.85,1.24H256a7.21,7.21,0,0,1,0,14.41h-9.21a2,2,0,0,0,0,4H256a11.21,11.21,0,0,0,0-22.41h-7.21v2A2,2,0,0,1,246.77,249.11Z"/><path class="cls-2" d="M244.77,247.13a2,2,0,0,1,2-2h2V217.19a2,2,0,0,0-4,0v29.92a2,2,0,0,0,.15.78A2.1,2.1,0,0,1,244.77,247.13Z"/><path class="cls-2" d="M244.77,247.13a2.1,2.1,0,0,0,.15.76,2,2,0,0,0,3.85-.78v-2h-2A2,2,0,0,0,244.77,247.13Z"/><path class="cls-2" d="M272.1,277.15a43,43,0,0,1-50.67,0,2,2,0,0,0-2.35,3.24,47,47,0,0,0,55.37,0,2,2,0,0,0-2.35-3.24Z"/><path class="cls-2" d="M224.8,224a2,2,0,0,0,4,0,14.25,14.25,0,0,0-28.5,0,2,2,0,0,0,4,0,10.25,10.25,0,0,1,20.5,0Z"/><path class="cls-2" d="M277.56,209.75A14.26,14.26,0,0,0,263.31,224a2,2,0,0,0,4,0,10.25,10.25,0,0,1,20.49,0,2,2,0,0,0,4,0A14.26,14.26,0,0,0,277.56,209.75Z"/></g></svg>