<svg id="Farbe" xmlns="http://www.w3.org/2000/svg" viewBox="0 0 374.44 345.84"><defs><style>.cls-1{fill:#fff;}.cls-2{fill:#005d90;}</style></defs><path class="cls-1" d="M189.23,73.33a5,5,0,0,1-5-5V15.13a5,5,0,1,1,10,0v53.2A5,5,0,0,1,189.23,73.33Z"/><path class="cls-1" d="M189.23,76.33a8,8,0,0,1-8-8V15.13a8,8,0,1,1,16,0v53.2A8,8,0,0,1,189.23,76.33Z"/><path class="cls-2" d="M189.23,77.83a9.52,9.52,0,0,1-9.5-9.5V15.13a9.5,9.5,0,1,1,19,0v53.2A9.52,9.52,0,0,1,189.23,77.83Zm0-69.2a6.51,6.51,0,0,0-6.5,6.5v53.2a6.5,6.5,0,1,0,13,0V15.13A6.51,6.51,0,0,0,189.23,8.63Z"/><line class="cls-1" x1="263.61" y1="78.91" x2="296.81" y2="37.35"/><rect class="cls-2" x="253.61" y="56.63" width="53.19" height="3" transform="translate(59.87 240.74) rotate(-51.37)"/><path class="cls-1" d="M263.61,86.91a8,8,0,0,1-6.25-13l33.2-41.57a8,8,0,0,1,12.5,10L269.86,83.9A8,8,0,0,1,263.61,86.91Z"/><path class="cls-2" d="M263.61,88.41A9.5,9.5,0,0,1,256.19,73l33.2-41.56a9.5,9.5,0,1,1,14.84,11.86L271,84.84A9.48,9.48,0,0,1,263.61,88.41Zm33.21-57.56a6.51,6.51,0,0,0-5.09,2.44l-33.2,41.56a6.52,6.52,0,0,0,1,9.14,6.5,6.5,0,0,0,9.13-1l33.2-41.57a6.49,6.49,0,0,0-5.07-10.55Z"/><line class="cls-1" x1="114.84" y1="78.91" x2="81.64" y2="37.35"/><rect class="cls-2" x="96.74" y="31.53" width="3" height="53.19" transform="translate(-14.8 74.02) rotate(-38.62)"/><path class="cls-1" d="M114.84,86.91a8,8,0,0,1-6.25-3L75.39,42.34a8,8,0,0,1,12.5-10l33.2,41.57a8,8,0,0,1-6.25,13Z"/><path class="cls-2" d="M114.84,88.41a9.45,9.45,0,0,1-7.42-3.57L74.22,43.28A9.5,9.5,0,1,1,89.06,31.42L122.26,73a9.5,9.5,0,0,1-7.42,15.43ZM81.63,30.85A6.49,6.49,0,0,0,76.56,41.4L109.76,83a6.5,6.5,0,0,0,10.16-8.12L86.72,33.29A6.51,6.51,0,0,0,81.63,30.85Z"/><rect class="cls-1" x="36.66" y="144.71" width="313.86" height="141.35" rx="70.67"/><path class="cls-2" d="M279.84,287.56H107.33a72.18,72.18,0,0,1,0-144.35H279.84a72.18,72.18,0,0,1,0,144.35ZM107.33,146.21a69.18,69.18,0,0,0,0,138.35H279.84a69.18,69.18,0,0,0,0-138.35Z"/><path class="cls-1" d="M279.84,294.06a78.67,78.67,0,0,0,78.67-78.67h0a78.68,78.68,0,0,0-78.67-78.68"/><path class="cls-2" d="M279.84,295.56v-3a77.18,77.18,0,0,0,0-154.35v-3a80.18,80.18,0,0,1,0,160.35Z"/><path class="cls-2" d="M126.28,236a22.46,22.46,0,0,1-22.44-22.44,1.5,1.5,0,0,1,3,0,19.44,19.44,0,0,0,38.88,0,1.5,1.5,0,0,1,3,0A22.46,22.46,0,0,1,126.28,236Z"/><path class="cls-2" d="M126.28,226.14A13.18,13.18,0,0,1,113.12,213a1.5,1.5,0,0,1,3,0,10.16,10.16,0,0,0,20.32,0,1.5,1.5,0,1,1,3,0A13.18,13.18,0,0,1,126.28,226.14Z"/><path class="cls-2" d="M114.69,180.74a10.85,10.85,0,1,1,0-21.7,1.5,1.5,0,1,1,0,3,7.85,7.85,0,1,0,0,15.7,1.5,1.5,0,0,1,0,3Z"/><path class="cls-2" d="M135.25,155.56a1.5,1.5,0,0,1,0-3,7.86,7.86,0,0,0,7.85-7.85,1.5,1.5,0,0,1,3,0A10.86,10.86,0,0,1,135.25,155.56Z"/><path class="cls-2" d="M34.32,214.24c-4.81,0-20.35-1.22-24.75-16.62a1.5,1.5,0,0,1,2.89-.82c1.88,6.59,6.28,11,13.06,13.15a29.16,29.16,0,0,0,10,1.26,1.49,1.49,0,0,1,1.62,1.36,1.51,1.51,0,0,1-1.36,1.63S35.19,214.24,34.32,214.24Z"/><path class="cls-2" d="M33.31,214.17H7.94a1.5,1.5,0,1,1,0-3H33.31a1.5,1.5,0,0,1,0,3Z"/><path class="cls-1" d="M344.22,270.75l-74-130.5a10.55,10.55,0,0,0-9.18-5.35H183.69a10.55,10.55,0,0,0-9.18,15.75l74,130.51a10.54,10.54,0,0,0,9.18,5.35H335A10.56,10.56,0,0,0,344.22,270.75Z"/><path class="cls-2" d="M335,288H257.65a12.08,12.08,0,0,1-10.49-6.11L173.21,151.39a12,12,0,0,1,10.48-18h77.39a12.06,12.06,0,0,1,10.48,6.11l74,130.51A12,12,0,0,1,335,288ZM183.69,136.4a9,9,0,0,0-7.87,13.52l74,130.5a9.08,9.08,0,0,0,7.88,4.59H335a9,9,0,0,0,7.88-13.52L269,141a9.06,9.06,0,0,0-7.87-4.59Z"/><path class="cls-1" d="M322.27,150.65l-74,130.51a10.54,10.54,0,0,1-9.18,5.35H161.74a10.56,10.56,0,0,1-9.18-15.76l74-130.5a10.54,10.54,0,0,1,9.18-5.35h77.38A10.55,10.55,0,0,1,322.27,150.65Z"/><path class="cls-2" d="M239.13,288H161.74a12,12,0,0,1-10.48-18l74-130.51a12.08,12.08,0,0,1,10.49-6.11h77.38a12,12,0,0,1,10.49,18l-74,130.51A12.06,12.06,0,0,1,239.13,288ZM235.7,136.4a9.09,9.09,0,0,0-7.88,4.59l-73.95,130.5A9,9,0,0,0,161.74,285h77.39a9.06,9.06,0,0,0,7.87-4.59l74-130.5a9,9,0,0,0-7.88-13.52Z"/><path class="cls-1" d="M17.1,238.63H88a0,0,0,0,1,0,0V334a0,0,0,0,1,0,0H17.1a9.15,9.15,0,0,1-9.15-9.15V247.78A9.15,9.15,0,0,1,17.1,238.63Z"/><path class="cls-2" d="M89.46,335.54H17.1A10.67,10.67,0,0,1,6.44,324.89V247.78A10.67,10.67,0,0,1,17.1,237.13H89.46ZM17.1,240.13a7.66,7.66,0,0,0-7.66,7.65v77.11a7.66,7.66,0,0,0,7.66,7.65H86.46V240.13Z"/><path class="cls-1" d="M82.89,336.36c102.53-.58,201.34-15.52,201.34-15.52l81.33-47a9.89,9.89,0,0,0,3.62-13.51h0a25.71,25.71,0,0,0-33.83-10.11L266.81,284.8l-89.21-11h67.48A18.83,18.83,0,0,0,263.91,255h0a18.82,18.82,0,0,0-18.83-18.82l-162.19.28"/><path class="cls-2" d="M82.89,337.86a1.5,1.5,0,0,1,0-3c98.58-.56,195-14.59,200.85-15.46l81.08-46.82a8.39,8.39,0,0,0,3.07-11.46A24.21,24.21,0,0,0,336,251.6l-68.55,34.54a1.41,1.41,0,0,1-.86.15l-89.2-11a1.5,1.5,0,0,1,.18-3h67.48a17.33,17.33,0,1,0,0-34.65l-162.19.28h0a1.5,1.5,0,0,1-1.5-1.49,1.51,1.51,0,0,1,1.5-1.51l162.19-.28a20.33,20.33,0,1,1,0,40.65H202l64.53,8,68.14-34.34a27.22,27.22,0,0,1,35.8,10.7,11.4,11.4,0,0,1-4.17,15.56l-81.33,47a1.58,1.58,0,0,1-.53.18c-1,.15-100.09,15-201.55,15.54Z"/><rect class="cls-1" x="70.29" y="232.32" width="13.03" height="108.39"/><path class="cls-2" d="M83.32,342.2h-13a1.5,1.5,0,0,1-1.5-1.5V232.32a1.5,1.5,0,0,1,1.5-1.5h13a1.5,1.5,0,0,1,1.5,1.5V340.7A1.5,1.5,0,0,1,83.32,342.2Zm-11.53-3h10V233.82h-10Z"/></svg>