<?xml version="1.0" encoding="UTF-8" standalone="no" ?>
<!DOCTYPE svg PUBLIC "-//W3C//DTD SVG 1.1//EN" "http://www.w3.org/Graphics/SVG/1.1/DTD/svg11.dtd">
<svg xmlns="http://www.w3.org/2000/svg" xmlns:xlink="http://www.w3.org/1999/xlink" version="1.1" width="366" height="338" viewBox="0 0 366 338" xml:space="preserve">
<desc>Created with Fabric.js 3.6.3</desc>
<defs>
</defs>
<g transform="matrix(-1 0 0 1 181.22 167.92)"  >
<g style=""   >
		<g transform="matrix(1 0 0 1 2.01 -131.19)"  >
<path style="stroke: none; stroke-width: 1; stroke-dasharray: none; stroke-linecap: butt; stroke-dashoffset: 0; stroke-linejoin: miter; stroke-miterlimit: 4; fill: rgb(255,255,255); fill-rule: nonzero; opacity: 1;"  transform=" translate(-189.23, -41.73)" d="M 189.23 73.33 a 5 5 0 0 1 -5 -5 V 15.13 a 5 5 0 1 1 10 0 v 53.2 A 5 5 0 0 1 189.23 73.33 Z" stroke-linecap="round" />
</g>
		<g transform="matrix(1 0 0 1 2.01 -131.19)"  >
<path style="stroke: none; stroke-width: 1; stroke-dasharray: none; stroke-linecap: butt; stroke-dashoffset: 0; stroke-linejoin: miter; stroke-miterlimit: 4; fill: rgb(255,255,255); fill-rule: nonzero; opacity: 1;"  transform=" translate(-189.23, -41.73)" d="M 189.23 76.33 a 8 8 0 0 1 -8 -8 V 15.13 a 8 8 0 1 1 16 0 v 53.2 A 8 8 0 0 1 189.23 76.33 Z" stroke-linecap="round" />
</g>
		<g transform="matrix(1 0 0 1 2.01 -131.19)"  >
<path style="stroke: none; stroke-width: 1; stroke-dasharray: none; stroke-linecap: butt; stroke-dashoffset: 0; stroke-linejoin: miter; stroke-miterlimit: 4; fill: rgb(0,93,144); fill-rule: nonzero; opacity: 1;"  transform=" translate(-189.23, -41.73)" d="M 189.23 77.83 a 9.52 9.52 0 0 1 -9.5 -9.5 V 15.13 a 9.5 9.5 0 1 1 19 0 v 53.2 A 9.52 9.52 0 0 1 189.23 77.83 Z m 0 -69.2 a 6.51 6.51 0 0 0 -6.5 6.5 v 53.2 a 6.5 6.5 0 1 0 13 0 V 15.13 A 6.51 6.51 0 0 0 189.23 8.63 Z" stroke-linecap="round" />
</g>
		<g transform="matrix(1 0 0 1 92.99 -114.79)"  >
<line style="stroke: none; stroke-width: 1; stroke-dasharray: none; stroke-linecap: butt; stroke-dashoffset: 0; stroke-linejoin: miter; stroke-miterlimit: 4; fill: rgb(255,255,255); fill-rule: nonzero; opacity: 1;"  x1="-16.599999999999994" y1="20.779999999999998" x2="16.599999999999994" y2="-20.779999999999998" />
</g>
		<g transform="matrix(0.62 -0.78 0.78 0.62 92.99 -114.79)"  >
<rect style="stroke: none; stroke-width: 1; stroke-dasharray: none; stroke-linecap: butt; stroke-dashoffset: 0; stroke-linejoin: miter; stroke-miterlimit: 4; fill: rgb(0,93,144); fill-rule: nonzero; opacity: 1;"  x="-26.595" y="-1.5" rx="0" ry="0" width="53.19" height="3" />
</g>
		<g transform="matrix(1 0 0 1 92.98 -114.79)"  >
<path style="stroke: none; stroke-width: 1; stroke-dasharray: none; stroke-linecap: butt; stroke-dashoffset: 0; stroke-linejoin: miter; stroke-miterlimit: 4; fill: rgb(255,255,255); fill-rule: nonzero; opacity: 1;"  transform=" translate(-280.21, -58.12)" d="M 263.61 86.91 a 8 8 0 0 1 -6.25 -13 l 33.2 -41.57 a 8 8 0 0 1 12.5 10 L 269.86 83.9 A 8 8 0 0 1 263.61 86.91 Z" stroke-linecap="round" />
</g>
		<g transform="matrix(1 0 0 1 93.05 -114.84)"  >
<path style="stroke: none; stroke-width: 1; stroke-dasharray: none; stroke-linecap: butt; stroke-dashoffset: 0; stroke-linejoin: miter; stroke-miterlimit: 4; fill: rgb(0,93,144); fill-rule: nonzero; opacity: 1;"  transform=" translate(-280.27, -58.07)" d="M 263.61 88.41 A 9.5 9.5 0 0 1 256.19 73 l 33.2 -41.56 a 9.5 9.5 0 1 1 14.84 11.86 L 271 84.84 A 9.48 9.48 0 0 1 263.61 88.41 Z m 33.21 -57.56 a 6.51 6.51 0 0 0 -5.09 2.44 l -33.2 41.56 a 6.52 6.52 0 0 0 1 9.14 a 6.5 6.5 0 0 0 9.13 -1 l 33.2 -41.57 a 6.49 6.49 0 0 0 -5.07 -10.55 Z" stroke-linecap="round" />
</g>
		<g transform="matrix(1 0 0 1 -88.98 -114.79)"  >
<line style="stroke: none; stroke-width: 1; stroke-dasharray: none; stroke-linecap: butt; stroke-dashoffset: 0; stroke-linejoin: miter; stroke-miterlimit: 4; fill: rgb(255,255,255); fill-rule: nonzero; opacity: 1;"  x1="16.6" y1="20.779999999999998" x2="-16.6" y2="-20.779999999999998" />
</g>
		<g transform="matrix(0.78 -0.62 0.62 0.78 -88.99 -114.8)"  >
<rect style="stroke: none; stroke-width: 1; stroke-dasharray: none; stroke-linecap: butt; stroke-dashoffset: 0; stroke-linejoin: miter; stroke-miterlimit: 4; fill: rgb(0,93,144); fill-rule: nonzero; opacity: 1;"  x="-1.5" y="-26.595" rx="0" ry="0" width="3" height="53.19" />
</g>
		<g transform="matrix(1 0 0 1 -88.98 -114.79)"  >
<path style="stroke: none; stroke-width: 1; stroke-dasharray: none; stroke-linecap: butt; stroke-dashoffset: 0; stroke-linejoin: miter; stroke-miterlimit: 4; fill: rgb(255,255,255); fill-rule: nonzero; opacity: 1;"  transform=" translate(-98.24, -58.12)" d="M 114.84 86.91 a 8 8 0 0 1 -6.25 -3 L 75.39 42.34 a 8 8 0 0 1 12.5 -10 l 33.2 41.57 a 8 8 0 0 1 -6.25 13 Z" stroke-linecap="round" />
</g>
		<g transform="matrix(1 0 0 1 -89.04 -114.84)"  >
<path style="stroke: none; stroke-width: 1; stroke-dasharray: none; stroke-linecap: butt; stroke-dashoffset: 0; stroke-linejoin: miter; stroke-miterlimit: 4; fill: rgb(0,93,144); fill-rule: nonzero; opacity: 1;"  transform=" translate(-98.19, -58.07)" d="M 114.84 88.41 a 9.45 9.45 0 0 1 -7.42 -3.57 L 74.22 43.28 A 9.5 9.5 0 1 1 89.06 31.42 L 122.26 73 a 9.5 9.5 0 0 1 -7.42 15.43 Z M 81.63 30.85 A 6.49 6.49 0 0 0 76.56 41.4 L 109.76 83 a 6.5 6.5 0 0 0 10.16 -8.12 L 86.72 33.29 A 6.51 6.51 0 0 0 81.63 30.85 Z" stroke-linecap="round" />
</g>
		<g transform="matrix(1 0 0 1 6.37 42.46)"  >
<rect style="stroke: none; stroke-width: 1; stroke-dasharray: none; stroke-linecap: butt; stroke-dashoffset: 0; stroke-linejoin: miter; stroke-miterlimit: 4; fill: rgb(255,255,255); fill-rule: nonzero; opacity: 1;"  x="-156.93" y="-70.675" rx="70.67" ry="70.67" width="313.86" height="141.35" />
</g>
		<g transform="matrix(1 0 0 1 6.37 42.46)"  >
<path style="stroke: none; stroke-width: 1; stroke-dasharray: none; stroke-linecap: butt; stroke-dashoffset: 0; stroke-linejoin: miter; stroke-miterlimit: 4; fill: rgb(0,93,144); fill-rule: nonzero; opacity: 1;"  transform=" translate(-193.58, -215.38)" d="M 279.84 287.56 H 107.33 a 72.18 72.18 0 0 1 0 -144.35 H 279.84 a 72.18 72.18 0 0 1 0 144.35 Z M 107.33 146.21 a 69.18 69.18 0 0 0 0 138.35 H 279.84 a 69.18 69.18 0 0 0 0 -138.35 Z" stroke-linecap="round" />
</g>
		<g transform="matrix(1 0 0 1 131.96 42.47)"  >
<path style="stroke: none; stroke-width: 1; stroke-dasharray: none; stroke-linecap: butt; stroke-dashoffset: 0; stroke-linejoin: miter; stroke-miterlimit: 4; fill: rgb(255,255,255); fill-rule: nonzero; opacity: 1;"  transform=" translate(-319.17, -215.38)" d="M 279.84 294.06 a 78.67 78.67 0 0 0 78.67 -78.67 h 0 a 78.68 78.68 0 0 0 -78.67 -78.68" stroke-linecap="round" />
</g>
		<g transform="matrix(1 0 0 1 132.26 42.46)"  >
<path style="stroke: none; stroke-width: 1; stroke-dasharray: none; stroke-linecap: butt; stroke-dashoffset: 0; stroke-linejoin: miter; stroke-miterlimit: 4; fill: rgb(0,93,144); fill-rule: nonzero; opacity: 1;"  transform=" translate(-319.48, -215.38)" d="M 279.84 295.56 v -3 a 77.18 77.18 0 0 0 0 -154.35 v -3 a 80.18 80.18 0 0 1 0 160.35 Z" stroke-linecap="round" />
</g>
		<g transform="matrix(1 0 0 1 -60.94 51.11)"  >
<path style="stroke: none; stroke-width: 1; stroke-dasharray: none; stroke-linecap: butt; stroke-dashoffset: 0; stroke-linejoin: miter; stroke-miterlimit: 4; fill: rgb(0,93,144); fill-rule: nonzero; opacity: 1;"  transform=" translate(-126.28, -224.03)" d="M 126.28 236 a 22.46 22.46 0 0 1 -22.44 -22.44 a 1.5 1.5 0 0 1 3 0 a 19.44 19.44 0 0 0 38.88 0 a 1.5 1.5 0 0 1 3 0 A 22.46 22.46 0 0 1 126.28 236 Z" stroke-linecap="round" />
</g>
		<g transform="matrix(1 0 0 1 -60.94 45.9)"  >
<path style="stroke: none; stroke-width: 1; stroke-dasharray: none; stroke-linecap: butt; stroke-dashoffset: 0; stroke-linejoin: miter; stroke-miterlimit: 4; fill: rgb(0,93,144); fill-rule: nonzero; opacity: 1;"  transform=" translate(-126.28, -218.82)" d="M 126.28 226.14 A 13.18 13.18 0 0 1 113.12 213 a 1.5 1.5 0 0 1 3 0 a 10.16 10.16 0 0 0 20.32 0 a 1.5 1.5 0 1 1 3 0 A 13.18 13.18 0 0 1 126.28 226.14 Z" stroke-linecap="round" />
</g>
		<g transform="matrix(1 0 0 1 -77.2 -3.03)"  >
<path style="stroke: none; stroke-width: 1; stroke-dasharray: none; stroke-linecap: butt; stroke-dashoffset: 0; stroke-linejoin: miter; stroke-miterlimit: 4; fill: rgb(0,93,144); fill-rule: nonzero; opacity: 1;"  transform=" translate(-110.01, -169.89)" d="M 114.69 180.74 a 10.85 10.85 0 1 1 0 -21.7 a 1.5 1.5 0 1 1 0 3 a 7.85 7.85 0 1 0 0 15.7 a 1.5 1.5 0 0 1 0 3 Z" stroke-linecap="round" />
</g>
		<g transform="matrix(1 0 0 1 -47.3 -23.54)"  >
<path style="stroke: none; stroke-width: 1; stroke-dasharray: none; stroke-linecap: butt; stroke-dashoffset: 0; stroke-linejoin: miter; stroke-miterlimit: 4; fill: rgb(0,93,144); fill-rule: nonzero; opacity: 1;"  transform=" translate(-139.93, -149.38)" d="M 135.25 155.56 a 1.5 1.5 0 0 1 0 -3 a 7.86 7.86 0 0 0 7.85 -7.85 a 1.5 1.5 0 0 1 3 0 A 10.86 10.86 0 0 1 135.25 155.56 Z" stroke-linecap="round" />
</g>
		<g transform="matrix(1 0 0 1 -163.89 32.06)"  >
<path style="stroke: none; stroke-width: 1; stroke-dasharray: none; stroke-linecap: butt; stroke-dashoffset: 0; stroke-linejoin: miter; stroke-miterlimit: 4; fill: rgb(0,93,144); fill-rule: nonzero; opacity: 1;"  transform=" translate(-23.33, -204.97)" d="M 34.32 214.24 c -4.81 0 -20.35 -1.22 -24.75 -16.62 a 1.5 1.5 0 0 1 2.89 -0.82 c 1.88 6.59 6.28 11 13.06 13.15 a 29.16 29.16 0 0 0 10 1.26 a 1.49 1.49 0 0 1 1.62 1.36 a 1.51 1.51 0 0 1 -1.36 1.63 S 35.19 214.24 34.32 214.24 Z" stroke-linecap="round" />
</g>
		<g transform="matrix(1 0 0 1 -166.59 39.75)"  >
<path style="stroke: none; stroke-width: 1; stroke-dasharray: none; stroke-linecap: butt; stroke-dashoffset: 0; stroke-linejoin: miter; stroke-miterlimit: 4; fill: rgb(0,93,144); fill-rule: nonzero; opacity: 1;"  transform=" translate(-20.63, -212.67)" d="M 33.31 214.17 H 7.94 a 1.5 1.5 0 1 1 0 -3 H 33.31 a 1.5 1.5 0 0 1 0 3 Z" stroke-linecap="round" />
</g>
		<g transform="matrix(1 0 0 1 72.14 37.79)"  >
<path style="stroke: none; stroke-width: 1; stroke-dasharray: none; stroke-linecap: butt; stroke-dashoffset: 0; stroke-linejoin: miter; stroke-miterlimit: 4; fill: rgb(255,255,255); fill-rule: nonzero; opacity: 1;"  transform=" translate(-259.36, -210.71)" d="M 344.22 270.75 l -74 -130.5 a 10.55 10.55 0 0 0 -9.18 -5.35 H 183.69 a 10.55 10.55 0 0 0 -9.18 15.75 l 74 130.51 a 10.54 10.54 0 0 0 9.18 5.35 H 335 A 10.56 10.56 0 0 0 344.22 270.75 Z" stroke-linecap="round" />
</g>
		<g transform="matrix(1 0 0 1 72.16 37.78)"  >
<path style="stroke: none; stroke-width: 1; stroke-dasharray: none; stroke-linecap: butt; stroke-dashoffset: 0; stroke-linejoin: miter; stroke-miterlimit: 4; fill: rgb(0,93,144); fill-rule: nonzero; opacity: 1;"  transform=" translate(-259.38, -210.7)" d="M 335 288 H 257.65 a 12.08 12.08 0 0 1 -10.49 -6.11 L 173.21 151.39 a 12 12 0 0 1 10.48 -18 h 77.39 a 12.06 12.06 0 0 1 10.48 6.11 l 74 130.51 A 12 12 0 0 1 335 288 Z M 183.69 136.4 a 9 9 0 0 0 -7.87 13.52 l 74 130.5 a 9.08 9.08 0 0 0 7.88 4.59 H 335 a 9 9 0 0 0 7.88 -13.52 L 269 141 a 9.06 9.06 0 0 0 -7.87 -4.59 Z" stroke-linecap="round" />
</g>
		<g transform="matrix(1 0 0 1 50.19 37.79)"  >
<path style="stroke: none; stroke-width: 1; stroke-dasharray: none; stroke-linecap: butt; stroke-dashoffset: 0; stroke-linejoin: miter; stroke-miterlimit: 4; fill: rgb(255,255,255); fill-rule: nonzero; opacity: 1;"  transform=" translate(-237.42, -210.7)" d="M 322.27 150.65 l -74 130.51 a 10.54 10.54 0 0 1 -9.18 5.35 H 161.74 a 10.56 10.56 0 0 1 -9.18 -15.76 l 74 -130.5 a 10.54 10.54 0 0 1 9.18 -5.35 h 77.38 A 10.55 10.55 0 0 1 322.27 150.65 Z" stroke-linecap="round" />
</g>
		<g transform="matrix(1 0 0 1 50.22 37.77)"  >
<path style="stroke: none; stroke-width: 1; stroke-dasharray: none; stroke-linecap: butt; stroke-dashoffset: 0; stroke-linejoin: miter; stroke-miterlimit: 4; fill: rgb(0,93,144); fill-rule: nonzero; opacity: 1;"  transform=" translate(-237.44, -210.69)" d="M 239.13 288 H 161.74 a 12 12 0 0 1 -10.48 -18 l 74 -130.51 a 12.08 12.08 0 0 1 10.49 -6.11 h 77.38 a 12 12 0 0 1 10.49 18 l -74 130.51 A 12.06 12.06 0 0 1 239.13 288 Z M 235.7 136.4 a 9.09 9.09 0 0 0 -7.88 4.59 l -73.95 130.5 A 9 9 0 0 0 161.74 285 h 77.39 a 9.06 9.06 0 0 0 7.87 -4.59 l 74 -130.5 a 9 9 0 0 0 -7.88 -13.52 Z" stroke-linecap="round" />
</g>
		<g transform="matrix(1 0 0 1 -139.25 113.39)"  >
<path style="stroke: none; stroke-width: 1; stroke-dasharray: none; stroke-linecap: butt; stroke-dashoffset: 0; stroke-linejoin: miter; stroke-miterlimit: 4; fill: rgb(255,255,255); fill-rule: nonzero; opacity: 1;"  transform=" translate(-47.98, -286.31)" d="M 17.1 238.63 H 88 a 0 0 0 0 1 0 0 V 334 a 0 0 0 0 1 0 0 H 17.1 a 9.15 9.15 0 0 1 -9.15 -9.15 V 247.78 A 9.15 9.15 0 0 1 17.1 238.63 Z" stroke-linecap="round" />
</g>
		<g transform="matrix(1 0 0 1 -139.27 113.42)"  >
<path style="stroke: none; stroke-width: 1; stroke-dasharray: none; stroke-linecap: butt; stroke-dashoffset: 0; stroke-linejoin: miter; stroke-miterlimit: 4; fill: rgb(0,93,144); fill-rule: nonzero; opacity: 1;"  transform=" translate(-47.95, -286.34)" d="M 89.46 335.54 H 17.1 A 10.67 10.67 0 0 1 6.44 324.89 V 247.78 A 10.67 10.67 0 0 1 17.1 237.13 H 89.46 Z M 17.1 240.13 a 7.66 7.66 0 0 0 -7.66 7.65 v 77.11 a 7.66 7.66 0 0 0 7.66 7.65 H 86.46 V 240.13 Z" stroke-linecap="round" />
</g>
		<g transform="matrix(1 0 0 1 39.48 113.35)"  >
<path style="stroke: none; stroke-width: 1; stroke-dasharray: none; stroke-linecap: butt; stroke-dashoffset: 0; stroke-linejoin: miter; stroke-miterlimit: 4; fill: rgb(255,255,255); fill-rule: nonzero; opacity: 1;"  transform=" translate(-226.7, -286.27)" d="M 82.89 336.36 c 102.53 -0.58 201.34 -15.52 201.34 -15.52 l 81.33 -47 a 9.89 9.89 0 0 0 3.62 -13.51 h 0 a 25.71 25.71 0 0 0 -33.83 -10.11 L 266.81 284.8 l -89.21 -11 h 67.48 A 18.83 18.83 0 0 0 263.91 255 h 0 a 18.82 18.82 0 0 0 -18.83 -18.82 l -162.19 0.28" stroke-linecap="round" />
</g>
		<g transform="matrix(1 0 0 1 39.46 113.36)"  >
<path style="stroke: none; stroke-width: 1; stroke-dasharray: none; stroke-linecap: butt; stroke-dashoffset: 0; stroke-linejoin: miter; stroke-miterlimit: 4; fill: rgb(0,93,144); fill-rule: nonzero; opacity: 1;"  transform=" translate(-226.68, -286.28)" d="M 82.89 337.86 a 1.5 1.5 0 0 1 0 -3 c 98.58 -0.56 195 -14.59 200.85 -15.46 l 81.08 -46.82 a 8.39 8.39 0 0 0 3.07 -11.46 A 24.21 24.21 0 0 0 336 251.6 l -68.55 34.54 a 1.41 1.41 0 0 1 -0.86 0.15 l -89.2 -11 a 1.5 1.5 0 0 1 0.18 -3 h 67.48 a 17.33 17.33 0 1 0 0 -34.65 l -162.19 0.28 h 0 a 1.5 1.5 0 0 1 -1.5 -1.49 a 1.51 1.51 0 0 1 1.5 -1.51 l 162.19 -0.28 a 20.33 20.33 0 1 1 0 40.65 H 202 l 64.53 8 l 68.14 -34.34 a 27.22 27.22 0 0 1 35.8 10.7 a 11.4 11.4 0 0 1 -4.17 15.56 l -81.33 47 a 1.58 1.58 0 0 1 -0.53 0.18 c -1 0.15 -100.09 15 -201.55 15.54 Z" stroke-linecap="round" />
</g>
		<g transform="matrix(1 0 0 1 -110.42 113.59)"  >
<rect style="stroke: none; stroke-width: 1; stroke-dasharray: none; stroke-linecap: butt; stroke-dashoffset: 0; stroke-linejoin: miter; stroke-miterlimit: 4; fill: rgb(255,255,255); fill-rule: nonzero; opacity: 1;"  x="-6.515" y="-54.195" rx="0" ry="0" width="13.03" height="108.39" />
</g>
		<g transform="matrix(1 0 0 1 -110.4 113.59)"  >
<path style="stroke: none; stroke-width: 1; stroke-dasharray: none; stroke-linecap: butt; stroke-dashoffset: 0; stroke-linejoin: miter; stroke-miterlimit: 4; fill: rgb(0,93,144); fill-rule: nonzero; opacity: 1;"  transform=" translate(-76.82, -286.51)" d="M 83.32 342.2 h -13 a 1.5 1.5 0 0 1 -1.5 -1.5 V 232.32 a 1.5 1.5 0 0 1 1.5 -1.5 h 13 a 1.5 1.5 0 0 1 1.5 1.5 V 340.7 A 1.5 1.5 0 0 1 83.32 342.2 Z m -11.53 -3 h 10 V 233.82 h -10 Z" stroke-linecap="round" />
</g>
</g>
</g>
</svg>