<svg xmlns="http://www.w3.org/2000/svg" viewBox="0 0 93.54 36.85"><defs><style>.cls-1{fill:#035e91;}.cls-2{fill:#fff;}.cls-3{fill:#e18f5f;}.cls-4{fill:#5a211f;}.cls-5{fill:#8e4839;}.cls-6{fill:#004b76;}</style></defs><g id="Layer_20" data-name="Layer 20"><g id="Layer_18" data-name="Layer 18"><g id="Body"><path class="cls-1" d="M5.8,21.31,3.54,21l-.32-3.92a2.19,2.19,0,0,1,2.1-2.28l8.09-.07,1,1.76c4,.51,2.22,4.51,2.22,4.51l2.54,1.47a8.48,8.48,0,0,1,.93,4.11A8.77,8.77,0,0,1,11,34.92,8.57,8.57,0,0,1,3.7,23"/><path class="cls-2" d="M11.52,35.69l-.6,0A9.31,9.31,0,0,1,3,22.74l1.38.59a7.69,7.69,0,0,0-.62,2.93,7.81,7.81,0,0,0,15.62.33A7.94,7.94,0,0,0,18.64,23l-2.93-1.69.28-.61a3.38,3.38,0,0,0,.09-2.56,2.15,2.15,0,0,0-1.72-.91l-.37,0-1-1.71-7.67.07a1.43,1.43,0,0,0-1,.46,1.47,1.47,0,0,0-.38,1l.27,3.29,1.65.21L5.7,22.06,2.84,21.7l-.36-4.53a2.92,2.92,0,0,1,2.81-3.09L13.84,14l1.08,1.83a3.4,3.4,0,0,1,2.47,1.61,4.34,4.34,0,0,1,.19,3.25L19.78,22l.1.2a9.13,9.13,0,0,1-2.1,11.05A9.42,9.42,0,0,1,11.52,35.69Z"/><path class="cls-1" d="M3.7,23a8.56,8.56,0,1,0,15.51-.53L16.67,21s1.77-4-2.22-4.51l-1-1.76-8.09.07a2.19,2.19,0,0,0-2.1,2.28L3.54,21l2.26.28"/><path class="cls-3" d="M17.18,20.48l-9.41.86-.1-2.17c-.32,0-4.16.78-4.36.8l.1,2.3a3,3,0,0,0,1.15,2,2.72,2.72,0,0,0,1.55.52,3.05,3.05,0,0,0,.6-.06l12.73-2.44a.19.19,0,0,0,.15-.21A2.33,2.33,0,0,0,17.18,20.48Z"/><path class="cls-2" d="M6.15,25.32h0a3.23,3.23,0,0,1-1.85-.62,3.51,3.51,0,0,1-1.35-2.4l-.12-2.78.47-.05c.13,0,1.08-.19,2.05-.38l2.3-.42.54-.07.1,2.2L17.13,20a2.8,2.8,0,0,1,3,2.07.7.7,0,0,1-.55.75L6.8,25.25A2.81,2.81,0,0,1,6.15,25.32ZM3.83,20.39l.08,1.85a2.49,2.49,0,0,0,1,1.65,2.17,2.17,0,0,0,1.26.43,3.71,3.71,0,0,0,.48-.05L19,21.89A2.05,2.05,0,0,0,17.23,21h0l-9.92.91-.1-2.13-1.7.32Z"/><path class="cls-3" d="M17.18,20.48l-9.41.86-.1-2.17c-.32,0-4.16.78-4.36.8l.1,2.3a3,3,0,0,0,1.15,2,2.72,2.72,0,0,0,1.55.52,3.05,3.05,0,0,0,.6-.06l12.73-2.44a.19.19,0,0,0,.15-.21A2.33,2.33,0,0,0,17.18,20.48Z"/></g><g id="Kopf_Gesicht" data-name="Kopf / Gesicht"><path class="cls-4" d="M6.84,3.29A2.78,2.78,0,1,0,9,5.5,2.78,2.78,0,0,0,6.84,3.29Z"/><path class="cls-2" d="M6.24,9.53a3.71,3.71,0,0,1-.73-.08A3.51,3.51,0,0,1,2.78,6.63,3.53,3.53,0,0,1,7,2.55H7a3.53,3.53,0,0,1-.75,7ZM6.25,4a2,2,0,0,0-1.41.57A2,2,0,0,0,5.82,8a2,2,0,0,0,1.84-.52,2.07,2.07,0,0,0,.59-1.83A2,2,0,0,0,6.69,4h0A2.09,2.09,0,0,0,6.25,4Z"/><path class="cls-4" d="M6.84,3.29A2.78,2.78,0,1,0,9,5.5,2.78,2.78,0,0,0,6.84,3.29Z"/><path class="cls-3" d="M14.89,10.84l0-2a4.44,4.44,0,0,0-4.31-4.54h0A4.45,4.45,0,0,0,6.08,8.59l0,2.16,0,.62a3.9,3.9,0,0,0,1.68,3.22,4.51,4.51,0,0,0,2.69.95,4.4,4.4,0,0,0,2.7-.86,3.89,3.89,0,0,0,1.79-3.16v-.1s0-.05,0-.07v-.48A0,0,0,0,0,14.89,10.84Z"/><path class="cls-2" d="M10.44,16.29h-.08a5.21,5.21,0,0,1-3.14-1.11,4.62,4.62,0,0,1-2-3.82l0-.65,0-2.14A5.2,5.2,0,0,1,10.5,3.52h.08a5.19,5.19,0,0,1,3.68,1.62,5.11,5.11,0,0,1,1.42,3.69l0,1.92v.12l0,.65A4.65,4.65,0,0,1,13.5,15.3,5.16,5.16,0,0,1,10.44,16.29ZM10.54,5A3.7,3.7,0,0,0,6.83,8.61l-.08,2.8A3.15,3.15,0,0,0,8.12,14a3.74,3.74,0,0,0,2.26.81h.06a3.62,3.62,0,0,0,2.18-.71,3.19,3.19,0,0,0,1.49-2.58l.07-2.7A3.67,3.67,0,0,0,10.6,5Z"/><path class="cls-5" d="M10.62,4.27h0A4.45,4.45,0,0,0,6.08,8.59l0,2.62a.32.32,0,0,0,.09.23.33.33,0,0,0,.23.1l8.2.13a.32.32,0,0,0,.33-.32l0-2.54A4.44,4.44,0,0,0,10.62,4.27Z"/><path class="cls-3" d="M10.77,7.52h0a.42.42,0,0,0-.5,0C6,10.58,6,10.65,6,10.73l0,.64a3.9,3.9,0,0,0,1.68,3.22,4.51,4.51,0,0,0,2.69.95,4.4,4.4,0,0,0,2.7-.86,3.89,3.89,0,0,0,1.79-3.16l0-.65C14.9,10.78,14.9,10.71,10.77,7.52Z"/><path class="cls-2" d="M10.44,16h-.08a5,5,0,0,1-3-1.06A4.37,4.37,0,0,1,5.5,11.37l0-.67c0-.37,0-.38,4.44-3.59a.92.92,0,0,1,1.09,0h0c4.33,3.34,4.33,3.36,4.33,3.75l0,.66a4.36,4.36,0,0,1-2,3.55A4.88,4.88,0,0,1,10.44,16ZM6.53,10.91l0,.49A3.36,3.36,0,0,0,8,14.18a3.91,3.91,0,0,0,2.4.86,4.32,4.32,0,0,0,2.4-.76,3.44,3.44,0,0,0,1.58-2.77l0-.49C13.93,10.61,12,9.11,10.51,8,9,9.07,7,10.52,6.53,10.91Z"/><path class="cls-3" d="M10.77,7.52h0a.42.42,0,0,0-.5,0C6,10.58,6,10.65,6,10.73l0,.64a3.9,3.9,0,0,0,1.68,3.22,4.51,4.51,0,0,0,2.69.95,4.4,4.4,0,0,0,2.7-.86,3.89,3.89,0,0,0,1.79-3.16l0-.65C14.9,10.78,14.9,10.71,10.77,7.52Z"/></g><path class="cls-6" d="M27.16,32.63V30.25l2.2-.44v-17L27,12.34V9.94h6.5v9a5.77,5.77,0,0,1,2-1.7,5.54,5.54,0,0,1,2.63-.61,5.16,5.16,0,0,1,4,1.56A6.93,6.93,0,0,1,43.47,23v6.81l2.2.44v2.38H37.31V30.25l2-.44V23a3.57,3.57,0,0,0-.71-2.51,2.72,2.72,0,0,0-2.09-.76,3.77,3.77,0,0,0-1.76.4,3.59,3.59,0,0,0-1.31,1.14v8.57l2,.44v2.38Z"/><path class="cls-6" d="M54.83,32.94a8,8,0,0,1-4.07-1,6.93,6.93,0,0,1-2.7-2.75,8.31,8.31,0,0,1-1-4v-.59A9.06,9.06,0,0,1,48,20.46a6.92,6.92,0,0,1,6.39-3.86,7.54,7.54,0,0,1,3.75.85,5.52,5.52,0,0,1,2.29,2.44,8.72,8.72,0,0,1,.77,3.81v2.2H51.39l0,.08a4.68,4.68,0,0,0,.53,2,3.46,3.46,0,0,0,1.32,1.39,3.91,3.91,0,0,0,2.06.51,8.31,8.31,0,0,0,2.36-.32,8.21,8.21,0,0,0,2-.95l1.18,2.46a8.76,8.76,0,0,1-2.5,1.32A10.73,10.73,0,0,1,54.83,32.94Zm-3.4-9.73h5.92v-.38A4.38,4.38,0,0,0,57,21.1,2.39,2.39,0,0,0,56.11,20a3,3,0,0,0-1.63-.41,2.54,2.54,0,0,0-1.56.48,3.13,3.13,0,0,0-1,1.28,5.67,5.67,0,0,0-.5,1.82Z"/><path class="cls-6" d="M69.8,32.94a5.86,5.86,0,0,1-3.37-1,6.08,6.08,0,0,1-2.16-2.7,10.16,10.16,0,0,1-.75-4.05v-.31a11.68,11.68,0,0,1,.75-4.36,6.52,6.52,0,0,1,2.16-2.92,5.53,5.53,0,0,1,3.36-1,5.26,5.26,0,0,1,2.42.52A5.11,5.11,0,0,1,74,18.59V12.78l-2.38-.44V9.94h6.5V29.81l2.2.44v2.38H74.55l-.32-1.9a5.34,5.34,0,0,1-1.87,1.65A5.55,5.55,0,0,1,69.8,32.94Zm1.2-3.1a3.3,3.3,0,0,0,3-1.63V21.4a3.57,3.57,0,0,0-1.22-1.25A3.27,3.27,0,0,0,71,19.7a2.8,2.8,0,0,0-1.92.66A3.89,3.89,0,0,0,68,22.19a9.73,9.73,0,0,0-.35,2.73v.31a6.18,6.18,0,0,0,.79,3.37A2.79,2.79,0,0,0,71,29.84Z"/><path class="cls-6" d="M81.74,32.63V30.25l2.2-.44V19.73l-2.38-.44v-2.4h6.5V29.81l2.2.44v2.38Zm2.05-19.19V9.94h4.27v3.5Z"/></g></g></svg>