<svg xmlns="http://www.w3.org/2000/svg" viewBox="0 0 93.54 36.85"><defs><style>.cls-1{fill:#035e91;}.cls-2{fill:#fff;}.cls-3{fill:#e18f5f;}</style></defs><g id="Layer_20" data-name="Layer 20"><g id="Layer_18" data-name="Layer 18"><path d="M27.12,32.58V30.2l2.2-.44v-17l-2.4-.44V9.89h6.51v9a5.77,5.77,0,0,1,2-1.7A5.64,5.64,0,0,1,38,16.55a5.13,5.13,0,0,1,4,1.57A6.94,6.94,0,0,1,43.43,23v6.81l2.2.44v2.38H37.27V30.2l2-.44V22.92a3.62,3.62,0,0,0-.71-2.51,2.74,2.74,0,0,0-2.1-.76,3.76,3.76,0,0,0-1.75.4,3.51,3.51,0,0,0-1.31,1.14v8.57l2,.44v2.38Z"/><path d="M54.79,32.89a8,8,0,0,1-4.08-1A7,7,0,0,1,48,29.14a8.31,8.31,0,0,1-1-4v-.59A9.06,9.06,0,0,1,48,20.41a6.94,6.94,0,0,1,6.4-3.86,7.63,7.63,0,0,1,3.74.85,5.41,5.41,0,0,1,2.29,2.44,8.57,8.57,0,0,1,.78,3.81v2.2H51.34l0,.08a4.83,4.83,0,0,0,.53,2,3.6,3.6,0,0,0,1.32,1.39,4,4,0,0,0,2.07.51,8.36,8.36,0,0,0,2.36-.32,8.21,8.21,0,0,0,2-1L60.81,31a8.76,8.76,0,0,1-2.5,1.32A10.77,10.77,0,0,1,54.79,32.89Zm-3.4-9.73h5.92v-.38A4.57,4.57,0,0,0,57,21.05a2.39,2.39,0,0,0-.93-1.14,3,3,0,0,0-1.63-.4,2.53,2.53,0,0,0-1.56.47,3.23,3.23,0,0,0-1,1.28,6.23,6.23,0,0,0-.5,1.82Z"/><path d="M69.76,32.89a5.84,5.84,0,0,1-3.37-1,6.08,6.08,0,0,1-2.16-2.7,10.16,10.16,0,0,1-.75-4.05v-.31a11.68,11.68,0,0,1,.75-4.36,6.58,6.58,0,0,1,2.16-2.92,5.52,5.52,0,0,1,3.35-1,5.31,5.31,0,0,1,2.43.52A5.11,5.11,0,0,1,74,18.54V12.73l-2.39-.44V9.89h6.51V29.76l2.2.44v2.38H74.51l-.32-1.9a5.34,5.34,0,0,1-1.87,1.65A5.58,5.58,0,0,1,69.76,32.89Zm1.2-3.1a3.3,3.3,0,0,0,3-1.63V21.35a3.57,3.57,0,0,0-1.22-1.25A3.29,3.29,0,0,0,71,19.65a2.8,2.8,0,0,0-1.92.66A3.89,3.89,0,0,0,68,22.14a9.42,9.42,0,0,0-.35,2.73v.31a6.27,6.27,0,0,0,.78,3.37A2.81,2.81,0,0,0,71,29.79Z"/><path d="M81.7,32.58V30.2l2.2-.44V19.68l-2.39-.44v-2.4H88V29.76l2.2.44v2.38Zm2-19.19V9.89H88v3.5Z"/><g id="B_W_Figur" data-name="B/W Figur"><g id="Body"><path class="cls-1" d="M4,22.58a8.28,8.28,0,1,0,15-.75l-2.48-1.38s1.65-3.89-2.22-4.33l-1-1.69-7.83.2a2.11,2.11,0,0,0-2,2.23l.21,3.8L6,20.89"/><path d="M11.63,35h-.41a9.39,9.39,0,0,1-8.85-8.5A9.27,9.27,0,0,1,3,22.2L4.88,23a7.28,7.28,0,0,0,11.78,8,7.3,7.3,0,0,0,1.53-8.4l-3-1.67.35-.83a3,3,0,0,0,.07-2.23,1.84,1.84,0,0,0-1.48-.71l-.48-.06-1-1.61-7.25.18a1.07,1.07,0,0,0-.74.36,1.1,1.1,0,0,0-.28.81l.16,2.95,1.49.14-.19,2-3.07.21-.38-5.18a3.09,3.09,0,0,1,2.93-3.28l8.44-.21,1.09,1.79a3.48,3.48,0,0,1,2.48,1.62A4.27,4.27,0,0,1,17.66,20l2,1.13.14.26A9.35,9.35,0,0,1,20.9,25.7,9.26,9.26,0,0,1,11.63,35Z"/><path class="cls-2" d="M4,22.58a8.28,8.28,0,1,0,15-.75l-2.48-1.38s1.65-3.89-2.22-4.33l-1-1.69-7.83.2a2.11,2.11,0,0,0-2,2.23l.21,3.8L6,20.89"/><path class="cls-3" d="M16.93,20.09l-9.15,1L7.65,19c-.32.05-4.05.82-4.25.84L3.54,22A2.88,2.88,0,0,0,4.69,24a2.68,2.68,0,0,0,1.52.48,2.86,2.86,0,0,0,.58-.06l12.37-2.56a.18.18,0,0,0,.15-.2A2.29,2.29,0,0,0,16.93,20.09Z"/><path d="M6.21,25.2a3.33,3.33,0,0,1-1.95-.62,3.67,3.67,0,0,1-1.47-2.49l-.18-2.95.71-.08,1.94-.39,2.28-.45.81-.11.13,2.12,8.36-.88a3,3,0,0,1,3.21,2.19.92.92,0,0,1-.72,1L6.94,25.12A3.47,3.47,0,0,1,6.21,25.2Zm-2-4.78L4.29,22a2.13,2.13,0,0,0,.83,1.38,1.94,1.94,0,0,0,1.51.3l11.61-2.4A1.8,1.8,0,0,0,17,20.84h0L7.08,21.89l-.13-2-1.4.28Z"/><path class="cls-2" d="M16.93,20.09l-9.15,1L7.65,19c-.32.05-4.05.82-4.25.84L3.54,22A2.88,2.88,0,0,0,4.69,24a2.68,2.68,0,0,0,1.52.48,2.86,2.86,0,0,0,.58-.06l12.37-2.56a.18.18,0,0,0,.15-.2A2.29,2.29,0,0,0,16.93,20.09Z"/></g><g id="Kopf_Gesicht" data-name="Kopf / Gesicht"><path class="cls-2" d="M6.81,3A2.74,2.74,0,0,0,3.44,6.38,2.71,2.71,0,0,0,5.33,8.27,2.74,2.74,0,0,0,8.7,4.89,2.71,2.71,0,0,0,6.81,3Z"/><path d="M6.08,9.24A3.6,3.6,0,0,1,2.6,6.6,3.61,3.61,0,0,1,7,2.16H7a3.61,3.61,0,0,1-1,7.08Zm0-5.46A1.86,1.86,0,0,0,4.29,6.15,1.81,1.81,0,0,0,5.56,7.42a1.87,1.87,0,0,0,1.82-.48,1.84,1.84,0,0,0,.48-1.82A1.84,1.84,0,0,0,6.08,3.78Z"/><path class="cls-2" d="M6.81,3A2.74,2.74,0,0,0,3.44,6.38,2.71,2.71,0,0,0,5.33,8.27,2.74,2.74,0,0,0,8.7,4.89,2.71,2.71,0,0,0,6.81,3Z"/><path class="cls-3" d="M14.64,10.25v-2a4.35,4.35,0,0,0-4.3-4.4h-.05A4.37,4.37,0,0,0,5.94,8.18v2.13l0,.61a3.81,3.81,0,0,0,1.7,3.13,4.41,4.41,0,0,0,5.3,0,3.82,3.82,0,0,0,1.71-3.14v-.1a.13.13,0,0,0,0-.06v-.51Z"/><path d="M10.26,15.82a5.16,5.16,0,0,1-3.18-1.08,4.63,4.63,0,0,1-2-3.82l0-.65V8.17a5.23,5.23,0,0,1,10.45.1v2l0,.65a4.68,4.68,0,0,1-2.08,3.83A5.12,5.12,0,0,1,10.26,15.82Zm.07-11.07A3.49,3.49,0,0,0,6.82,8.19l0,2.76a3,3,0,0,0,1.32,2.39,3.6,3.6,0,0,0,4.26,0,3,3,0,0,0,1.37-2.45l0-2.66a3.47,3.47,0,0,0-3.44-3.51Z"/><path class="cls-2" d="M10.34,3.87h-.05A4.37,4.37,0,0,0,5.94,8.18v2.58A.32.32,0,0,0,6,11a.31.31,0,0,0,.22.09h8.07a.31.31,0,0,0,.31-.31V8.27A4.35,4.35,0,0,0,10.34,3.87Z"/><path class="cls-2" d="M10.56,7.15h0a.42.42,0,0,0-.49,0c-4.13,3-4.13,3.07-4.13,3.15l0,.62A3.73,3.73,0,0,0,7.62,14,4.52,4.52,0,0,0,13,14a3.71,3.71,0,0,0,1.71-3.07l0-.62C14.69,10.22,14.69,10.15,10.56,7.15Z"/><path d="M10.29,15.61a5.19,5.19,0,0,1-3.12-1,4.39,4.39,0,0,1-2-3.66l0-.66c0-.49,0-.49,4.44-3.72a1.19,1.19,0,0,1,1.36,0h0c4.44,3.23,4.44,3.23,4.44,3.76l0,.65a4.43,4.43,0,0,1-2,3.66A5.2,5.2,0,0,1,10.29,15.61Zm-3.62-5V11A3,3,0,0,0,8,13.37a3.86,3.86,0,0,0,4.46,0,3,3,0,0,0,1.41-2.47l0-.34c-.56-.45-2.25-1.69-3.62-2.68C9.36,8.59,7.27,10.11,6.67,10.6Zm0-.3v0Z"/><path class="cls-2" d="M10.56,7.15h0a.42.42,0,0,0-.49,0c-4.13,3-4.13,3.07-4.13,3.15l0,.62A3.73,3.73,0,0,0,7.62,14,4.52,4.52,0,0,0,13,14a3.71,3.71,0,0,0,1.71-3.07l0-.62C14.69,10.22,14.69,10.15,10.56,7.15Z"/></g></g></g></g></svg>