<svg xmlns="http://www.w3.org/2000/svg" viewBox="0 0 93.54 36.85"><defs><style>.cls-1{fill:#004b76;}.cls-2{fill:#035e91;}.cls-3{fill:#cfd5ed;}.cls-4{fill:#e18f5f;}.cls-5{fill:#fff;}.cls-6{fill:#cfd6ee;}</style></defs><g id="Layer_20" data-name="Layer 20"><g id="Layer_18" data-name="Layer 18"><path class="cls-1" d="M27.22,32.34V30l2.2-.43v-17L27,12.05V9.64h6.51v9a5.46,5.46,0,0,1,4.58-2.31,5.12,5.12,0,0,1,4,1.56,6.92,6.92,0,0,1,1.45,4.84v6.81l2.2.43v2.39H37.37V30l2-.43V22.68a3.61,3.61,0,0,0-.72-2.52,2.74,2.74,0,0,0-2.09-.75,3.8,3.8,0,0,0-1.76.4A3.39,3.39,0,0,0,33.53,21v8.57l2,.43v2.39Z"/><path class="cls-1" d="M54.89,32.64a8.11,8.11,0,0,1-4.08-1,7,7,0,0,1-2.69-2.75,8.23,8.23,0,0,1-1-4v-.6a9,9,0,0,1,.92-4.12,7,7,0,0,1,2.57-2.84,7.16,7.16,0,0,1,3.82-1,7.54,7.54,0,0,1,3.75.85,5.46,5.46,0,0,1,2.29,2.44,8.51,8.51,0,0,1,.78,3.81V25.6H51.44l0,.09a4.83,4.83,0,0,0,.53,2,3.58,3.58,0,0,0,1.32,1.38,4,4,0,0,0,2.06.51,8,8,0,0,0,2.36-.32,7.54,7.54,0,0,0,2-.94l1.19,2.46a8.57,8.57,0,0,1-2.51,1.31A10.45,10.45,0,0,1,54.89,32.64Zm-3.4-9.73H57.4v-.38a4.52,4.52,0,0,0-.3-1.72,2.39,2.39,0,0,0-.93-1.14,3,3,0,0,0-1.63-.41,2.65,2.65,0,0,0-1.57.47,3.28,3.28,0,0,0-1,1.28,6,6,0,0,0-.5,1.83Z"/><path class="cls-1" d="M69.86,32.64a5.84,5.84,0,0,1-3.37-1A6.08,6.08,0,0,1,64.33,29a10.09,10.09,0,0,1-.75-4.05v-.3a11.73,11.73,0,0,1,.75-4.37,6.49,6.49,0,0,1,2.16-2.91,6,6,0,0,1,5.78-.53A5.12,5.12,0,0,1,74,18.3V12.48l-2.38-.43V9.64h6.51V29.52l2.2.43v2.39H74.6l-.31-1.91a5.14,5.14,0,0,1-1.87,1.65A5.46,5.46,0,0,1,69.86,32.64Zm1.19-3.09a3.5,3.5,0,0,0,1.76-.43A3.36,3.36,0,0,0,74,27.92V21.11a3.46,3.46,0,0,0-1.21-1.25,3.33,3.33,0,0,0-1.75-.45,2.79,2.79,0,0,0-1.91.66,3.89,3.89,0,0,0-1.11,1.83,9.31,9.31,0,0,0-.36,2.73v.3a6.31,6.31,0,0,0,.79,3.38A2.82,2.82,0,0,0,71.05,29.55Z"/><path class="cls-1" d="M81.79,32.34V30l2.2-.43V19.43L81.61,19V16.6h6.51V29.52l2.2.43v2.39Zm2-19.19V9.64h4.28v3.51Z"/><g id="Body"><path class="cls-2" d="M4.17,22.59A8.37,8.37,0,1,0,20.3,25.74a8.32,8.32,0,0,0-1-3.91l-2.5-1.4s1.66-3.93-2.24-4.37l-1-1.71-7.92.2a2.12,2.12,0,0,0-2,2.25l.21,3.85,2.37.22"/><path class="cls-1" d="M11.93,35.11a9.38,9.38,0,0,1-9.37-9.37,9.25,9.25,0,0,1,.69-3.53L5.1,23a7.37,7.37,0,1,0,13.47-.41l-3-1.68L15.9,20A3,3,0,0,0,16,17.78a1.9,1.9,0,0,0-1.51-.73L14,17l-1-1.64-7.33.19a1.07,1.07,0,0,0-.76.37,1.13,1.13,0,0,0-.28.82l.16,3,1.51.15-.19,2-3.22-.31-.26-4.7a3.13,3.13,0,0,1,3-3.31l8.52-.21,1.1,1.8a3.57,3.57,0,0,1,2.51,1.63A4.4,4.4,0,0,1,18,20l2.05,1.14.14.26a9.37,9.37,0,0,1-8.28,13.75Z"/><path class="cls-3" d="M4.17,22.59A8.37,8.37,0,1,0,20.3,25.74a8.32,8.32,0,0,0-1-3.91l-2.5-1.4s1.66-3.93-2.24-4.37l-1-1.71-7.92.2a2.12,2.12,0,0,0-2,2.25l.21,3.85,2.37.22"/><path class="cls-4" d="M17.29,20.07,8,21.05l-.13-2.12c-.32.05-4.1.83-4.29.85L3.76,22a2.94,2.94,0,0,0,1.16,2,2.66,2.66,0,0,0,1.54.49A2.87,2.87,0,0,0,7,24.41l12.51-2.58a.19.19,0,0,0,.14-.2A2.31,2.31,0,0,0,17.29,20.07Z"/><path class="cls-1" d="M6.46,25.23a3.37,3.37,0,0,1-2-.63A3.67,3.67,0,0,1,3,22.09l-.18-3,.7-.08,2-.39c1-.21,2.12-.43,2.28-.45l.81-.12.13,2.15,8.47-.9c1.3-.15,3.05.84,3.23,2.21a.94.94,0,0,1-.73,1L7.19,25.15A3.47,3.47,0,0,1,6.46,25.23Zm-2-4.84L4.51,22a2.17,2.17,0,0,0,.84,1.4,1.92,1.92,0,0,0,1.53.3l11.75-2.43a1.88,1.88,0,0,0-1.25-.44h0l-10,1.06-.13-2.05-1.39.28Z"/><path class="cls-5" d="M17.29,20.07,8,21.05l-.13-2.12c-.32.05-4.1.83-4.29.85L3.76,22a2.94,2.94,0,0,0,1.16,2,2.66,2.66,0,0,0,1.54.49A2.87,2.87,0,0,0,7,24.41l12.51-2.58a.19.19,0,0,0,.14-.2A2.31,2.31,0,0,0,17.29,20.07Z"/></g><g id="Kopf_Gesicht" data-name="Kopf / Gesicht"><path class="cls-5" d="M6.79,2.74A2.76,2.76,0,1,0,9,5,2.76,2.76,0,0,0,6.79,2.74Z"/><path class="cls-1" d="M6.32,9.22a3.36,3.36,0,0,1-.63-.06A3.75,3.75,0,1,1,9,8.12,3.72,3.72,0,0,1,6.32,9.22Zm0-5.52a1.71,1.71,0,0,0-1.24.52,1.76,1.76,0,1,0,1.54-.49h0A1.53,1.53,0,0,0,6.32,3.7Z"/><path class="cls-6" d="M6.79,2.74A2.76,2.76,0,1,0,9,5,2.76,2.76,0,0,0,6.79,2.74Z"/><path class="cls-4" d="M15,10.13v-2a4.39,4.39,0,0,0-4.35-4.44h-.05A4.4,4.4,0,0,0,6.19,8v2.15l0,.62A3.87,3.87,0,0,0,7.87,14a4.48,4.48,0,0,0,5.36,0A3.87,3.87,0,0,0,15,10.8v-.1s0,0,0-.06v-.48A0,0,0,0,0,15,10.13Z"/><path class="cls-1" d="M10.55,15.86a5.41,5.41,0,0,1-3.29-1.1,4.84,4.84,0,0,1-2.11-4l0-.66V8A5.4,5.4,0,0,1,16,8.13v2l0,.68a4.92,4.92,0,0,1-2.16,3.95A5.35,5.35,0,0,1,10.55,15.86Zm.07-11.18A3.41,3.41,0,0,0,7.19,8l0,2.8a2.88,2.88,0,0,0,1.3,2.31,3.53,3.53,0,0,0,4.17,0A2.91,2.91,0,0,0,14,10.8l0-2.69A3.39,3.39,0,0,0,10.62,4.68Z"/><path class="cls-6" d="M10.63,3.68h-.05A4.4,4.4,0,0,0,6.19,8v2.61a.31.31,0,0,0,.09.22.33.33,0,0,0,.23.1h8.15a.32.32,0,0,0,.32-.32V8.12A4.39,4.39,0,0,0,10.63,3.68Z"/><path class="cls-5" d="M10.85,7h0a.42.42,0,0,0-.49,0c-4.18,3-4.18,3.1-4.18,3.18l0,.63a3.78,3.78,0,0,0,1.73,3.1,4.57,4.57,0,0,0,5.39,0A3.75,3.75,0,0,0,15,10.8l0-.62C15,10.09,15,10,10.85,7Z"/><path class="cls-1" d="M10.58,15.53a5.28,5.28,0,0,1-3.15-1,4.47,4.47,0,0,1-2-3.7l0-.66c0-.5,0-.5,4.48-3.76a1.17,1.17,0,0,1,1.38,0h0c4.49,3.26,4.49,3.26,4.49,3.8l0,.65a4.46,4.46,0,0,1-2.06,3.69A5.23,5.23,0,0,1,10.58,15.53ZM6.92,10.47l0,.36a3,3,0,0,0,1.4,2.45,3.89,3.89,0,0,0,4.51,0,3,3,0,0,0,1.44-2.5v-.35C13.7,10,12,8.74,10.6,7.73,9.64,8.43,7.52,10,6.92,10.47Zm0-.3v0Z"/><path class="cls-5" d="M10.85,7h0a.42.42,0,0,0-.49,0c-4.18,3-4.18,3.1-4.18,3.18l0,.63a3.78,3.78,0,0,0,1.73,3.1,4.57,4.57,0,0,0,5.39,0A3.75,3.75,0,0,0,15,10.8l0-.62C15,10.09,15,10,10.85,7Z"/></g></g></g></svg>