<svg xmlns="http://www.w3.org/2000/svg" viewBox="0 0 500 500"><defs><style>.cls-1{fill:#942345;}</style></defs><g id="Farbe"><g id="Frau_lockere_Lines" data-name="Frau lockere Lines"><g id="Outline"><path id="Körper" class="cls-1" d="M363.66,297.89l2.91-.67-.22-1.79a22.88,22.88,0,0,0-21.92-20l-1.2-1.22c1.26-5.08,5.37-25.46-5.19-41.25-6.75-10.1-18.09-16.17-33.71-18.05l-10.87-17.09a49.58,49.58,0,0,0,12.07-30.27h1c8,0,14.52-6.08,14.52-13.55s-6.52-13.55-14.52-13.55h-1v-2.9h0l.14-33.05a49.91,49.91,0,0,0-14.61-35.61,58.64,58.64,0,0,0-41.19-17.13h-.59a59.58,59.58,0,0,0-24.75,5.33,36.3,36.3,0,1,0-31.66,56.81l-.1,23.66h.08v2.9h-1c-8,0-14.51,6.08-14.51,13.55s6.51,13.55,14.51,13.55h1A49.39,49.39,0,0,0,202.74,195l-30.44.87a31.25,31.25,0,0,0-21.85,10.38A29.1,29.1,0,0,0,143,226.37c0,.83,0,1.67.05,2.51l3,54.57,2.65-.28,1.64,20.09a107.06,107.06,0,0,0-8.1,41c0,61.46,52,111.45,116,111.45s116-50,116-111.45A108.16,108.16,0,0,0,363.66,297.89Zm-20.88-18.41a18.65,18.65,0,0,1,6.39.8,18.86,18.86,0,0,1,12.9,13.87l-.25.06-4,.92-166.2,38a30.4,30.4,0,0,1-37-26.88l-.18-2.32a1.21,1.21,0,0,1,0-.14l-.07,0-1.71-21,13.62-1.43,14-1.47,20.65-2.17.73,19,139.84-17.06C341.88,279.53,342.33,279.51,342.78,279.48ZM226.68,60.54a55.78,55.78,0,0,1,22.66-4.76h.55a54.63,54.63,0,0,1,38.38,15.93,46,46,0,0,1,13.46,32.78l-.1,23.66L249.24,88.68l-52.37,39.47.06-14.26,0-4,0-6.38c.2-17.61,10.68-32.93,26.13-41.2C224.27,61.68,225.46,61.08,226.68,60.54Zm-64.3,17.12A32.29,32.29,0,0,1,221,58.91c-16.55,9-27.77,25.53-28,44.56l0,6.45A32.34,32.34,0,0,1,162.38,77.66Zm34.53,87.92v-2h-5c-5.79,0-10.51-4.28-10.51-9.55s4.72-9.55,10.51-9.55h5V133.13l52.33-39.44,52.33,39.44v11.35h5c5.8,0,10.52,4.28,10.52,9.55s-4.72,9.55-10.52,9.55h-5v2a45.4,45.4,0,0,1-10.36,28.73c-.87,1.08-1.79,2.11-2.76,3.12a55.32,55.32,0,0,1-77.12,1.29,51.39,51.39,0,0,1-3.63-3.9A45.49,45.49,0,0,1,196.91,165.58ZM149.78,279l-.3-5.5L147,228.65c-.05-.78-.05-1.55,0-2.31A27.07,27.07,0,0,1,172.53,200L202,199.1V199l3.94-.11a59.24,59.24,0,0,0,84.73,2L302,218.71l1,.1c14.88,1.61,25.56,7.12,31.76,16.38,10.86,16.22,4.45,38.85,4.38,39.08l-.33,1.13.43.43L205.42,292.14l-.57-14.88-.16-4-4,.42-34.48,3.63-13.92,1.47ZM258.17,451.68c-61.74,0-112-48.2-112-107.45a102.89,102.89,0,0,1,5.24-32.54,34.39,34.39,0,0,0,41,25.3L359.66,298.8a104.31,104.31,0,0,1,10.48,45.43C370.14,403.48,319.91,451.68,258.17,451.68Z"/><g id="Gesicht"><path class="cls-1" d="M256,162.54h-5.22V142.2a1.5,1.5,0,0,0-3,0V164a1.63,1.63,0,0,0,.12.59,1.51,1.51,0,0,0,1.39.93H256A5.22,5.22,0,1,1,256,176h-6.71a1.5,1.5,0,0,0,0,3H256a8.22,8.22,0,1,0,0-16.43Z"/><path class="cls-1" d="M269.79,186.23a1.49,1.49,0,0,0-2.09-.33,31.32,31.32,0,0,1-36.91,0,1.5,1.5,0,1,0-1.76,2.43,34.69,34.69,0,0,0,20.21,6.59,34.1,34.1,0,0,0,10.25-1.58,34.6,34.6,0,0,0,10-5A1.5,1.5,0,0,0,269.79,186.23Z"/><path class="cls-1" d="M229.86,137.58h0a10.39,10.39,0,0,0-8.23,0h0a10.45,10.45,0,0,0-6.32,9.58,1.5,1.5,0,1,0,3,0,7.44,7.44,0,0,1,14.87,0,1.5,1.5,0,1,0,3,0A10.45,10.45,0,0,0,229.86,137.58Z"/><path class="cls-1" d="M275.81,137.58a10.36,10.36,0,0,0-8.22,0,10.45,10.45,0,0,0-6.32,9.58,1.5,1.5,0,0,0,3,0,7.44,7.44,0,0,1,14.87,0,1.5,1.5,0,0,0,3,0A10.44,10.44,0,0,0,275.81,137.58Z"/></g></g></g></g></svg>