<svg xmlns="http://www.w3.org/2000/svg" viewBox="0 0 500 500"><defs><style>.cls-1{fill:#035e90;}</style></defs><g id="Farbe"><path class="cls-1" d="M329.93,184.76A23.85,23.85,0,0,0,308.28,161v-.7a75.3,75.3,0,0,0-73.7-75.19c0-.42,0-1,0-1.61a1.47,1.47,0,0,0,.11-.56V81.19A41.15,41.15,0,0,1,236.39,72c3-9.66,9.34-15.92,18.74-18.61a1.63,1.63,0,1,0-.9-3.13A29.19,29.19,0,0,0,234.68,67.4V47.48a1.63,1.63,0,0,0-3.26,0v34c-.1,1.58-.11,2.85-.09,3.71a75.3,75.3,0,0,0-73.51,75.19v.7a23.82,23.82,0,0,0,0,47.44v2.75c-.35.17-.71.33-1,.52a13.31,13.31,0,0,0-6.66,11.6V384.6A13.45,13.45,0,0,0,161,397.79a75.22,75.22,0,0,0,144,0A13.45,13.45,0,0,0,316,384.6V223.35a13.31,13.31,0,0,0-6.66-11.6c-.34-.19-.7-.35-1.05-.52v-2.75A23.85,23.85,0,0,0,329.93,184.76ZM164.37,393.63a9,9,0,0,1-4.65-.81c-.25-.12-.51-.24-.76-.39a9,9,0,0,1-4.5-7.83V315.67a13.22,13.22,0,0,0,2.45,1.8l.91.52,4.35,2.46,44.44,25.19L211,348.1l17.68,10L168,392.49a9,9,0,0,1-3.61,1.14ZM300,399.2c-.19.56-.38,1.12-.59,1.67s-.4,1-.61,1.55-.44,1.1-.67,1.64-.45,1-.68,1.5-.49,1.08-.76,1.62-.49,1-.74,1.44-.54,1.07-.83,1.59-.54.93-.81,1.39-.6,1-.91,1.55-.57.9-.86,1.35-.65,1-1,1.5-.61.87-.92,1.3-.7,1-1.06,1.45-.65.84-1,1.25-.74.95-1.13,1.41l-1,1.2c-.39.45-.78.9-1.19,1.35s-.72.76-1.09,1.14-.83.87-1.25,1.29-.77.73-1.15,1.1-.87.83-1.31,1.23-.8.69-1.2,1-.9.79-1.37,1.17l-1.25,1c-.47.37-.94.74-1.42,1.1s-.87.62-1.31.93-1,.7-1.46,1-.91.58-1.36.87-1,.65-1.5,1-1,.55-1.42.82-1,.59-1.54.87-1,.51-1.48.76-1,.54-1.56.8-1,.46-1.54.69-1.05.49-1.59.71-1.06.42-1.59.63-1.07.43-1.61.63-1.1.37-1.65.56l-1.62.54c-.57.18-1.16.33-1.73.5s-1.07.31-1.62.45-1.21.28-1.82.42-1.05.26-1.58.37-1.29.23-1.93.34l-1.54.27c-.69.11-1.38.18-2.07.27-.49.06-1,.13-1.46.18-.77.08-1.56.13-2.34.18-.41,0-.82.07-1.24.09-1.2.06-2.4.09-3.62.09s-2.42,0-3.62-.09l-1.24-.09c-.78,0-1.56-.1-2.34-.18-.49-.05-1-.12-1.46-.18-.69-.09-1.38-.16-2.06-.27-.52-.08-1-.18-1.55-.27s-1.28-.21-1.92-.34-1.06-.25-1.58-.37-1.23-.26-1.83-.42-1.07-.3-1.61-.45-1.16-.32-1.73-.5-1.08-.36-1.63-.54-1.1-.36-1.65-.56-1.07-.42-1.61-.63-1.06-.41-1.59-.63-1.06-.47-1.59-.71-1-.45-1.53-.69-1-.53-1.57-.8-1-.49-1.48-.76l-1.53-.87c-.48-.27-1-.53-1.42-.82s-1-.63-1.5-1-.92-.57-1.37-.87-1-.68-1.46-1-.88-.61-1.31-.93-.94-.73-1.42-1.1l-1.25-1c-.46-.38-.91-.78-1.37-1.18s-.8-.68-1.19-1-.88-.82-1.32-1.23-.77-.72-1.14-1.1-.84-.86-1.26-1.29L180.83,424c-.4-.45-.8-.9-1.19-1.36s-.7-.79-1-1.19-.75-.94-1.12-1.41-.66-.82-1-1.25-.71-1-1.06-1.46-.63-.85-.92-1.29-.67-1-1-1.51-.58-.89-.86-1.34-.61-1-.91-1.55-.54-.92-.8-1.39-.56-1.06-.84-1.59-.5-1-.74-1.44-.51-1.08-.76-1.62-.46-1-.67-1.5-.46-1.09-.68-1.65-.41-1-.61-1.54-.4-1.11-.59-1.68-.31-.89-.46-1.34a13.44,13.44,0,0,0,4.54-1.58l62.91-35.65L296,396.27h0a13.44,13.44,0,0,0,4.54,1.58C300.36,398.3,300.2,398.75,300,399.2Zm11.61-93.4v78.8a9,9,0,0,1-4.51,7.83,6.8,6.8,0,0,1-.76.39,9,9,0,0,1-4.65.81h0a9.06,9.06,0,0,1-3.62-1.14h0l-60.65-34.37-4.41-2.5-17.81-10.09-4.34-2.46-48.73-27.62-3.12-1.76a8.74,8.74,0,0,1-1.23-.86,9.06,9.06,0,0,1-3.36-7V223.35a9,9,0,0,1,3.36-7,10.46,10.46,0,0,1,1.14-.79,9.07,9.07,0,0,1,3.21-1.13,8.9,8.9,0,0,1,5.83,1.08l60.64,34.36,4.41,2.5,70.89,40.17,3.11,1.76a9.29,9.29,0,0,1,4.6,7.9Zm0-82.45v68.92a13.41,13.41,0,0,0-2.46-1.8l-.91-.51-4.34-2.47-66.48-37.67,60.65-34.36a8.64,8.64,0,0,1,5.83-1.08,9.09,9.09,0,0,1,3.2,1.13,9.57,9.57,0,0,1,1.14.79A9,9,0,0,1,311.65,223.35Zm-5.54-19.12a2.17,2.17,0,0,0-2.17,2.17V210a13.34,13.34,0,0,0-8,1.67l-62.91,35.65-62.91-35.65a13.32,13.32,0,0,0-8-1.67v-3.6a2.17,2.17,0,0,0-2.17-2.17,19.48,19.48,0,1,1,0-38.95,2.17,2.17,0,0,0,2.17-2.17v-2.77a70.89,70.89,0,1,1,141.77,0v2.77a2.17,2.17,0,0,0,2.17,2.17,19.48,19.48,0,0,1,0,38.95Z"/><path class="cls-1" d="M196.42,169.57a1.63,1.63,0,0,0,1.63-1.63,8,8,0,0,1,16.07,0,1.63,1.63,0,0,0,3.26,0,11.3,11.3,0,0,0-22.59,0A1.63,1.63,0,0,0,196.42,169.57Z"/><path class="cls-1" d="M250.35,169.57a1.63,1.63,0,0,0,1.63-1.63,8,8,0,0,1,16.07,0,1.63,1.63,0,0,0,3.26,0,11.3,11.3,0,0,0-22.59,0A1.63,1.63,0,0,0,250.35,169.57Z"/><path class="cls-1" d="M233.05,200.5a11.31,11.31,0,0,0,11.3-11.3,1.63,1.63,0,0,0-3.26,0,8,8,0,1,1-16.07,0,1.63,1.63,0,0,0-3.26,0A11.31,11.31,0,0,0,233.05,200.5Z"/><path class="cls-1" d="M160.55,174.34a1.63,1.63,0,0,0,0-3.26,13.68,13.68,0,1,0,0,27.36,1.63,1.63,0,0,0,0-3.26,10.42,10.42,0,1,1,0-20.84Z"/><path class="cls-1" d="M305.56,195.18a1.63,1.63,0,0,0,0,3.26,13.68,13.68,0,1,0,0-27.36,1.63,1.63,0,0,0,0,3.26,10.42,10.42,0,1,1,0,20.84Z"/></g></svg>