<svg xmlns="http://www.w3.org/2000/svg" viewBox="0 0 500 500"><defs><style>.cls-1{fill:none;}.cls-2{fill:#005d90;}</style></defs><g id="Farbe"><g id="Frau_lockere_Lines" data-name="Frau lockere Lines"><path class="cls-1" d="M288.45,197.43l-.57-.9-76.55,2.19a55.32,55.32,0,0,0,77.12-1.29Z"/><path class="cls-1" d="M229,188.33a1.5,1.5,0,1,1,1.76-2.43,31.32,31.32,0,0,0,36.91,0,1.5,1.5,0,0,1,1.76,2.43,34.6,34.6,0,0,1-10,5l30.55-.88,1.17,1.85a45.4,45.4,0,0,0,10.36-28.73v-2h5c5.8,0,10.52-4.28,10.52-9.55s-4.72-9.55-10.52-9.55h-5v-6.9H275.81a10.44,10.44,0,0,1,6.33,9.58,1.5,1.5,0,0,1-3,0,7.44,7.44,0,0,0-14.87,0,1.5,1.5,0,0,1-3,0,10.45,10.45,0,0,1,6.32-9.58H229.86a10.45,10.45,0,0,1,6.32,9.58,1.5,1.5,0,1,1-3,0,7.44,7.44,0,0,0-14.87,0,1.5,1.5,0,1,1-3,0,10.45,10.45,0,0,1,6.32-9.58H196.91v6.9h-5c-5.79,0-10.51,4.28-10.51,9.55s4.72,9.55,10.51,9.55h5v2a45.49,45.49,0,0,0,10.79,29.24l33.2-.95A34.48,34.48,0,0,1,229,188.33Zm18.71-46.13a1.5,1.5,0,0,1,3,0v20.34H256A8.22,8.22,0,1,1,256,179h-6.71a1.5,1.5,0,0,1,0-3H256a5.22,5.22,0,1,0,0-10.43h-6.71a1.51,1.51,0,0,1-1.39-.93,1.63,1.63,0,0,1-.12-.59Z"/><path class="cls-1" d="M184.82,337.85a34.38,34.38,0,0,1-33.38-26.16,102.89,102.89,0,0,0-5.24,32.54c0,59.25,50.23,107.45,112,107.45s112-48.2,112-107.45a104.31,104.31,0,0,0-10.48-45.43L192.47,337A34.84,34.84,0,0,1,184.82,337.85Z"/><path class="cls-1" d="M149.66,273.51l2.21-.18.21,2.67,14.15,1.3,34.48-3.63L198.31,211l4-.16,2.39,62.38.68-.07.42,4-.94.1.57,14.88,133.76-16.31-.43-.43.33-1.13c.07-.23,6.48-22.86-4.38-39.08-6.2-9.26-16.88-14.77-31.76-16.38l-1-.1-11.32-17.82a59.24,59.24,0,0,1-84.73-2L202,199v.11l-29.47.88A27.07,27.07,0,0,0,147,226.34q0,.43,0,.87Z"/><path class="cls-1" d="M167,328.05a30.41,30.41,0,0,0,24.62,5l166.2-38c-.15-.29-.29-.57-.45-.86l-14.55-14.79c-.45,0-.9,0-1.35.1L201.59,296.64l-.73-19-20.65,2.17-.25,2.73-13.7-1.26-13.62,1.43,1.71,21,.07,0-.06.14.19,2.32A30.39,30.39,0,0,0,167,328.05Z"/><path class="cls-1" d="M227,77.66A32.13,32.13,0,0,0,223.1,62.3c-15.45,8.27-25.93,23.59-26.13,41.2l0,6.38A32.35,32.35,0,0,0,227,77.66Z"/><path class="cls-1" d="M301.63,128.16l.1-23.66a46,46,0,0,0-13.46-32.78,54.63,54.63,0,0,0-38.38-15.93h-.55a55.78,55.78,0,0,0-22.66,4.76A36,36,0,0,1,231,77.66a36.34,36.34,0,0,1-34.06,36.23l-.06,14.26,52.37-39.47Z"/><polygon class="cls-1" points="301.57 133.13 249.24 93.69 196.91 133.13 196.91 133.58 301.57 133.58 301.57 133.13"/><path class="cls-1" d="M221,58.91a32.29,32.29,0,1,0-28,51l0-6.45C193.19,84.44,204.41,67.88,221,58.91Z"/><path class="cls-1" d="M360.7,292.1c.38.7.75,1.4,1.12,2.11l.25-.06a18.86,18.86,0,0,0-12.9-13.87l11.4,11.58Z"/><path class="cls-2" d="M147,227.21q0-.44,0-.87c0,.76,0,1.53,0,2.31l2.46,44.88.18,0Z"/><path class="cls-2" d="M154.35,303.72v.17l.06-.14Z"/><path class="cls-2" d="M302,218.71l1,.1c14.88,1.61,25.56,7.12,31.76,16.38,10.86,16.22,4.45,38.85,4.38,39.08l-.33,1.13.43.43,1.77-.22a22.63,22.63,0,0,1,3.48-.15l-1.2-1.22c1.26-5.08,5.37-25.46-5.19-41.25-6.75-10.1-18.09-16.17-33.71-18.05l-10.87-17.09c-.89,1.05-1.83,2.06-2.8,3Z"/><path class="cls-2" d="M363.66,297.89l-4,.91a104.31,104.31,0,0,1,10.48,45.43c0,59.25-50.23,107.45-112,107.45s-112-48.2-112-107.45a102.89,102.89,0,0,1,5.24-32.54,34.06,34.06,0,0,1-.87-5.14l-.27-3.29a107.06,107.06,0,0,0-8.1,41c0,61.46,52,111.45,116,111.45s116-50,116-111.45A108.16,108.16,0,0,0,363.66,297.89Z"/><path class="cls-2" d="M172.36,196l29.52-.88L202,199l3.94-.11q-1.69-1.89-3.19-3.91l-30.44.87a31.25,31.25,0,0,0-21.85,10.38A29.1,29.1,0,0,0,143,226.37,31.11,31.11,0,0,1,172.36,196Z"/><path class="cls-2" d="M154.35,303.72l-1.71-21-4,.42,1.64,20.09.44-1.07Z"/><path class="cls-2" d="M191.58,333.09a30.4,30.4,0,0,1-37-26.88l-.19-2.32q-1.62,3.86-2.92,7.8a34.38,34.38,0,0,0,33.38,26.16,34.84,34.84,0,0,0,7.65-.86L359.66,298.8c-.6-1.23-1.23-2.46-1.88-3.67Z"/><path class="cls-2" d="M362.07,294.15l-.25.06c.63,1.21,1.25,2.44,1.84,3.68l2.91-.67-.22-1.79a22.88,22.88,0,0,0-21.92-20l4.74,4.82A18.86,18.86,0,0,1,362.07,294.15Z"/><path class="cls-2" d="M204.85,277.26l-4,.42.73,19,139.84-17.06c.45-.05.9-.07,1.35-.1l-3.6-3.65L205.42,292.14Z"/><path class="cls-2" d="M151.44,311.69q1.31-3.94,2.92-7.8v-.17l-3.61-1.53-.44,1.07.27,3.29A34.06,34.06,0,0,0,151.44,311.69Z"/><path class="cls-2" d="M341,275.61l-1.77.22,3.6,3.65a18.65,18.65,0,0,1,6.39.8l-4.74-4.82A22.63,22.63,0,0,0,341,275.61Z"/><path class="cls-2" d="M357.78,295.13c.65,1.21,1.28,2.44,1.88,3.67l4-.91c-.59-1.24-1.21-2.47-1.84-3.68Z"/><polygon class="cls-2" points="166.23 277.3 180.33 278.6 180.22 279.85 200.86 277.68 200.71 273.67 166.23 277.3"/><polygon class="cls-2" points="152.42 280.05 152.64 282.75 166.26 281.32 152.42 280.05"/><path class="cls-2" d="M146,279.46l-3-52c0-.36,0-.72,0-1.08,0,.83,0,1.67.05,2.51l3,54.57,2.65-.28-.29-3.49Z"/><path class="cls-2" d="M172.53,200,202,199.1V199l-29.52.85a27.2,27.2,0,0,0-19,9A25,25,0,0,0,147,226.34,27.07,27.07,0,0,1,172.53,200Z"/><polygon class="cls-2" points="180.22 279.85 180.33 278.6 166.23 277.3 152.31 278.77 152.42 280.05 166.26 281.32 180.22 279.85"/><path class="cls-2" d="M146,279.46l2.38.22-.49-6,1.6-.13L147,228.65c-.05-.78-.05-1.55,0-2.31a25,25,0,0,1,6.45-17.46,27.2,27.2,0,0,1,19-9L202,199l-.11-3.89-29.52.88A31.11,31.11,0,0,0,143,226.37c0,.36,0,.72,0,1.08Z"/><polygon class="cls-2" points="152.42 280.05 148.37 279.68 148.66 283.17 152.64 282.75 152.42 280.05"/><polygon class="cls-2" points="204.69 273.25 200.71 273.67 200.86 277.68 204.85 277.26 204.69 273.25"/><polygon class="cls-2" points="149.78 279.03 149.48 273.53 147.88 273.66 148.37 279.68 152.42 280.05 152.31 278.77 149.78 279.03"/><path class="cls-2" d="M162.38,77.66A32.29,32.29,0,0,1,221,58.91c1.19-.64,2.39-1.24,3.63-1.8a36.3,36.3,0,1,0-31.66,56.81l0-4A32.34,32.34,0,0,1,162.38,77.66Z"/><path class="cls-2" d="M223.1,62.3A32.22,32.22,0,0,0,221,58.91c-16.55,9-27.77,25.53-28,44.56l0,6.45c.57,0,1.15,0,1.73,0,.76,0,1.52,0,2.27-.09l0-6.38C197.17,85.89,207.65,70.57,223.1,62.3Z"/><path class="cls-2" d="M196.87,128.15l.06-14.26c-.74,0-1.49.08-2.25.08-.59,0-1.17,0-1.75,0l-.1,23.66h.08v-6.44Z"/><path class="cls-2" d="M249.34,55.78h.55a54.63,54.63,0,0,1,38.38,15.93,46,46,0,0,1,13.46,32.78l-.1,23.66,3.94,3v6.44h0l.14-33.05a49.91,49.91,0,0,0-14.61-35.61,58.64,58.64,0,0,0-41.19-17.13h-.59a59.58,59.58,0,0,0-24.75,5.33,34.1,34.1,0,0,1,2.09,3.43A55.78,55.78,0,0,1,249.34,55.78Z"/><path class="cls-2" d="M196.93,113.89l0-4c-.75.05-1.51.09-2.27.09-.58,0-1.16,0-1.73,0l0,4c.58,0,1.16,0,1.75,0C195.44,114,196.19,113.94,196.93,113.89Z"/><path class="cls-2" d="M223.1,62.3c1.17-.62,2.36-1.22,3.58-1.76a34.1,34.1,0,0,0-2.09-3.43c-1.24.56-2.44,1.16-3.63,1.8A32.22,32.22,0,0,1,223.1,62.3Z"/><path class="cls-2" d="M249.24,217.74a58.31,58.31,0,0,0,41.42-16.85l-2.21-3.46a55.32,55.32,0,0,1-77.12,1.29l-5.4.16A58.09,58.09,0,0,0,249.24,217.74Z"/><polygon class="cls-2" points="249.24 93.69 301.57 133.13 301.57 133.58 301.6 133.58 301.63 128.16 249.24 88.68 196.87 128.15 196.85 133.58 196.91 133.58 196.91 133.13 249.24 93.69"/><path class="cls-2" d="M196.91,165.58v-2h-5c-5.79,0-10.51-4.28-10.51-9.55s4.72-9.55,10.51-9.55h5v-6.9h-4v2.9h-1c-8,0-14.51,6.08-14.51,13.55s6.51,13.55,14.51,13.55h1A49.39,49.39,0,0,0,202.74,195l5-.15A45.49,45.49,0,0,1,196.91,165.58Z"/><path class="cls-2" d="M301.57,144.48h5c5.8,0,10.52,4.28,10.52,9.55s-4.72,9.55-10.52,9.55h-5v2a45.4,45.4,0,0,1-10.36,28.73l2.25,3.54a49.58,49.58,0,0,0,12.07-30.27h1c8,0,14.52-6.08,14.52-13.55s-6.52-13.55-14.52-13.55h-1v-2.9h-4Z"/><path class="cls-2" d="M211.33,198.72a51.39,51.39,0,0,1-3.63-3.9l-5,.15q1.5,2,3.19,3.91Z"/><path class="cls-2" d="M288.45,197.43l2.21,3.46c1-1,1.91-2,2.8-3l-2.25-3.54C290.34,195.39,289.42,196.42,288.45,197.43Z"/><polygon class="cls-2" points="301.63 128.16 301.6 133.58 301.57 133.58 301.57 137.58 305.57 137.58 305.57 131.14 301.63 128.16"/><polygon class="cls-2" points="196.91 133.58 196.85 133.58 196.87 128.15 192.91 131.14 192.91 137.58 196.91 137.58 196.91 133.58"/><path class="cls-2" d="M249.24,165.52a1.49,1.49,0,0,1-1.38-.91,1.51,1.51,0,0,0,1.39.93H256A5.22,5.22,0,1,1,256,176h-6.71a1.5,1.5,0,0,0,0,3H256a8.22,8.22,0,1,0,0-16.43h-5.22V164A1.5,1.5,0,0,1,249.24,165.52Z"/><path class="cls-2" d="M247.75,164a1.5,1.5,0,0,1,1.5-1.5h1.49V142.2a1.5,1.5,0,0,0-3,0V164a1.63,1.63,0,0,0,.12.59A1.56,1.56,0,0,1,247.75,164Z"/><path class="cls-2" d="M247.75,164a1.56,1.56,0,0,0,.11.57,1.5,1.5,0,0,0,2.88-.59v-1.48h-1.49A1.5,1.5,0,0,0,247.75,164Z"/><path class="cls-2" d="M269.79,186.23a1.49,1.49,0,0,0-2.09-.33,31.32,31.32,0,0,1-36.91,0,1.5,1.5,0,1,0-1.76,2.43,34.48,34.48,0,0,0,11.87,5.54l18.59-.53a34.6,34.6,0,0,0,10-5A1.5,1.5,0,0,0,269.79,186.23Z"/><path class="cls-2" d="M249.24,194.92a34.1,34.1,0,0,0,10.25-1.58l-18.59.53A34.16,34.16,0,0,0,249.24,194.92Z"/><path class="cls-2" d="M215.31,147.16a1.5,1.5,0,1,0,3,0,7.44,7.44,0,0,1,14.87,0,1.5,1.5,0,1,0,3,0,10.45,10.45,0,0,0-6.32-9.58h-8.23A10.45,10.45,0,0,0,215.31,147.16Z"/><path class="cls-2" d="M221.63,137.58h8.23a10.39,10.39,0,0,0-8.23,0Z"/><path class="cls-2" d="M261.27,147.16a1.5,1.5,0,0,0,3,0,7.44,7.44,0,0,1,14.87,0,1.5,1.5,0,0,0,3,0,10.44,10.44,0,0,0-6.33-9.58h-8.22A10.45,10.45,0,0,0,261.27,147.16Z"/><path class="cls-2" d="M267.59,137.58h8.22a10.36,10.36,0,0,0-8.22,0Z"/></g></g></svg>