<svg xmlns="http://www.w3.org/2000/svg" viewBox="0 0 500 500"><defs><style>.cls-1{fill:#942345;}</style></defs><g id="Farbe"><g id="Baby_nur_Outlines" data-name="Baby nur Outlines"><g id="Outline"><path class="cls-1" d="M435.62,349.55a27.18,27.18,0,0,0-16.91-12.77,80.09,80.09,0,0,0-29-97.93,12,12,0,0,0-11.53-15.51H248.83A12,12,0,0,0,237,233.15H172.47a72.26,72.26,0,0,0-72,68c-.26,0-.79,0-1.52,0a1.7,1.7,0,0,0-.45-.08H97.19a28.47,28.47,0,0,1-6.53-1.21c-6.79-2.13-11.18-6.56-13.06-13.15a1.5,1.5,0,0,0-2.89.82A21.06,21.06,0,0,0,85.8,301.1H73.08a1.5,1.5,0,1,0,0,3H97.36c.82.06,1.53.08,2.1.08l.86,0c0,.39,0,.77,0,1.16a71.64,71.64,0,0,0,3.35,21.74H82.23a10.67,10.67,0,0,0-10.65,10.66v77.11a10.67,10.67,0,0,0,10.65,10.65h51.7v5.16a1.5,1.5,0,0,0,1.5,1.5h13a1.5,1.5,0,0,0,1.5-1.5v-2.86c100.79-.75,198.65-15.37,199.63-15.52a1.4,1.4,0,0,0,.53-.19l81.33-47A11.4,11.4,0,0,0,435.62,349.55Zm-13.47-44.23a76.67,76.67,0,0,1-6.47,30.88,27.8,27.8,0,0,0-5.4-.19,27.61,27.61,0,0,0-10.46,2.85l-.87.44-32.88-58,18.5-32.63,1.48-2.63,2.48-4.37A77.17,77.17,0,0,1,422.15,305.32ZM319.88,362.79a20.34,20.34,0,0,0,10.67-17.88c0-.29,0-.58,0-.87l33.84-59.72,31.92,56.33L331.68,373.2l-16.19-2c-.07-.1-.15-.19-.21-.29Zm-6.35,5.13L312,365.15a21.24,21.24,0,0,0,3.49-.62ZM240.06,233.15a9,9,0,0,1,8.77-6.81H378.22a9,9,0,0,1,7.82,4.49,9.4,9.4,0,0,1,.48.95l.13.31c.09.23.16.46.23.69s.08.23.11.34a8.52,8.52,0,0,1,.17.85c0,.2.06.41.08.61a2.46,2.46,0,0,0,0,.28,9.16,9.16,0,0,1-.16,2.28h0a10,10,0,0,1-.29,1.07c0,.12-.07.24-.12.37s-.1.25-.16.38c-.13.3-.27.6-.43.89L386,240l-2.47,4.35L382.06,247l-17.71,31.26-1.72,3-32.89,58a20.34,20.34,0,0,0-19.52-14.72l-21.23,0-24.56-43.34-1.73-3L241,239.85a9.1,9.1,0,0,1-1.14-3.7A8.91,8.91,0,0,1,240.06,233.15Zm45.49,91.48-45.73.08,22.88-40.39ZM133.93,362.74v59.74H82.23a7.66,7.66,0,0,1-7.65-7.65V337.72a7.66,7.66,0,0,1,7.65-7.66h51.7Zm13-37.42V429.14h-10V323.75h10Zm1.5-4.57h-13a1.5,1.5,0,0,0-1.5,1.5v4.81H106.82a69.13,69.13,0,0,1,65.65-90.91H208.1a7.87,7.87,0,0,1-7.71,6.35,1.5,1.5,0,0,0,0,3,10.87,10.87,0,0,0,10.74-9.35h25.68a12,12,0,0,0,1.53,5.18L261,281.28l-24.62,43.43-38,.07a22.47,22.47,0,0,0,15.49-21.33,1.5,1.5,0,1,0-3,0,19.44,19.44,0,0,1-38.88,0,1.5,1.5,0,0,0-3,0,22.49,22.49,0,0,0,15.56,21.36l-34.58.06v-2.62A1.5,1.5,0,0,0,148.46,320.75ZM430,362.52l-22.44,13-2.72,1.58-55.92,32.28c-5.77.86-98,14.29-194.27,15.41l-4.64,0V327.87h4.64l80.06-.14h3.45l49.13-.09h3.45l19.53,0a17.35,17.35,0,0,1,17.25,15.73c0,.53.08,1.06.08,1.6a17.16,17.16,0,0,1-1.42,6.84,16.62,16.62,0,0,1-1.79,3.16,17.39,17.39,0,0,1-6.61,5.59,17.12,17.12,0,0,1-7.43,1.73H242.74a1.5,1.5,0,0,0-.19,3l66.66,8.23,4,.49.76.09,3.77.47H320a11.21,11.21,0,0,0,1.3.32l-3.62-.32,14,1.73a1.49,1.49,0,0,0,.86-.15l2.25-1.13.89-.45,62-31.24,2.68-1.35.74-.37a23.34,23.34,0,0,1,3.58-1.45,22.88,22.88,0,0,1,3.94-.9,24,24,0,0,1,5.68-.12,24.4,24.4,0,0,1,3.08.5A24.14,24.14,0,0,1,433,351.05,8.4,8.4,0,0,1,430,362.52Zm-118.28,8.21-44.53-5.5h41.42Z"/><path class="cls-1" d="M254.36,95.57a9.52,9.52,0,0,0-9.5,9.5v53.19a9.5,9.5,0,0,0,19,0V105.07A9.51,9.51,0,0,0,254.36,95.57Zm6.5,62.69a6.5,6.5,0,0,1-13,0V105.07a6.5,6.5,0,0,1,13,0Z"/><path class="cls-1" d="M367.88,119.86a9.51,9.51,0,0,0-13.35,1.49l-33.2,41.57a9.5,9.5,0,1,0,14.84,11.86l33.2-41.57A9.51,9.51,0,0,0,367.88,119.86ZM367,131.34l-33.2,41.56a6.5,6.5,0,0,1-9.14,1,6.52,6.52,0,0,1-1-9.14l33.2-41.56A6.5,6.5,0,0,1,367,131.34Z"/><path class="cls-1" d="M154.2,121.35a9.5,9.5,0,1,0-14.84,11.86l33.19,41.57a9.5,9.5,0,0,0,14.85-11.86ZM184,173.93a6.49,6.49,0,0,1-9.13-1l-33.2-41.56a6.5,6.5,0,0,1,10.16-8.11l33.2,41.56A6.52,6.52,0,0,1,184,173.93Z"/><path class="cls-1" d="M179.76,301.42a1.5,1.5,0,0,0-1.5,1.5,13.16,13.16,0,0,0,26.32,0,1.5,1.5,0,0,0-3,0,10.16,10.16,0,0,1-20.32,0A1.5,1.5,0,0,0,179.76,301.42Z"/><path class="cls-1" d="M179.83,270.68a1.5,1.5,0,0,0,0-3,7.85,7.85,0,0,1,0-15.7,1.5,1.5,0,0,0,0-3,10.85,10.85,0,0,0,0,21.7Z"/></g></g></g></svg>